<?xml version="1.0" encoding="UTF-8"?>
<svg version="1.1" xmlns="http://www.w3.org/2000/svg" width="1541" height="424">
<path d="M0 0 C508.53 0 1017.06 0 1541 0 C1541 139.92 1541 279.84 1541 424 C1032.47 424 523.94 424 0 424 C0 284.08 0 144.16 0 0 Z " fill="#FEFEFD" transform="translate(0,0)"/>
<path d="M0 0 C240.57 0 481.14 0 729 0 C729 113.85 729 227.7 729 345 C488.43 345 247.86 345 0 345 C0 231.15 0 117.3 0 0 Z " fill="#FE914C" transform="translate(42,39)"/>
<path d="M0 0 C508.53 0 1017.06 0 1541 0 C1541 139.92 1541 279.84 1541 424 C1032.47 424 523.94 424 0 424 C0 284.08 0 144.16 0 0 Z M9 8 C9 141.98 9 275.96 9 414 C511.92 414 1014.84 414 1533 414 C1533 280.02 1533 146.04 1533 8 C1030.08 8 527.16 8 9 8 Z " fill="#FC9453" transform="translate(0,0)"/>
<path d="M0 0 C63.75 0 63.75 0 75 9 C76.765625 11.5078125 76.765625 11.5078125 78.25 14.125 C78.75015625 14.99382812 79.2503125 15.86265625 79.765625 16.7578125 C83.35529257 23.27828461 83.10004354 32.35459318 81.38671875 39.58984375 C79.03290282 44.82630651 74.71415739 48.82346816 70 52 C67.75 52.69140625 67.75 52.69140625 66 53 C66 53.66 66 54.32 66 55 C67.155 55.20625 68.31 55.4125 69.5 55.625 C77.63981431 57.71028812 82.44134501 62.97157127 86.87109375 69.8515625 C90.33292344 76.43981969 89.9479936 84.97617933 88.28125 92.05078125 C84.89858898 101.9123293 80.28650369 108.09123551 71 113 C62.68706586 116.19001083 54.6094358 116.40206401 45.80078125 116.29296875 C44.63236694 116.28994751 43.46395264 116.28692627 42.26013184 116.28381348 C37.94416319 116.26825564 33.62832162 116.22637301 29.3125 116.1875 C19.639375 116.125625 9.96625 116.06375 0 116 C0 77.72 0 39.44 0 0 Z " fill="#020202" transform="translate(1004,171)"/>
<path d="M0 0 C61.52 0 61.52 0 72.05078125 8.98046875 C77.78141815 14.91782201 79.46274798 20.95850898 79.5625 29.125 C79.37746061 38.76265391 76.55591942 43.93398783 69.78125 50.5546875 C66.82926917 52.94993511 64.83480506 54 61 54 C61 54.66 61 55.32 61 56 C61.825 56.0825 62.65 56.165 63.5 56.25 C71.79403274 58.02729273 77.1769922 62.03343318 82 69 C85.89927964 75.88596191 85.90438547 83.52376947 84.25 91.125 C81.70459506 99.84959486 77.39962179 106.7349162 69.5 111.51171875 C48.0938111 122.62892102 24.79439141 116 0 116 C0 77.72 0 39.44 0 0 Z " fill="#FEFCF9" transform="translate(101,171)"/>
<path d="M0 0 C59.62527115 0 59.62527115 0 71.17578125 10.80078125 C78.36421769 19.46692626 80.83604548 29.01197372 80 40 C79.31152672 43.15887741 78.26379188 46.02926843 77 49 C76.73316406 49.68964844 76.46632813 50.37929687 76.19140625 51.08984375 C72.92201599 58.66029853 67.3327533 63.28163548 59.75 66.3125 C58.94046875 66.59738281 58.1309375 66.88226563 57.296875 67.17578125 C55.0898867 67.96774474 53.08518553 68.93464679 51 70 C51.36649658 70.54712646 51.73299316 71.09425293 52.1105957 71.65795898 C59.79058195 83.13061977 67.41406424 94.63390191 74.86425781 106.25732422 C75.9833773 107.97449424 77.14158941 109.66009369 78.3046875 111.34765625 C80 114 80 114 80 116 C74.64514783 116.95669815 69.26715368 117.74878344 64 116 C60.06190603 112.07304632 57.90459709 107.56298998 55.41650391 102.63330078 C52.65842719 97.50599719 49.34419019 92.72056597 46.125 87.875 C44.85573388 85.93557408 43.58745347 83.99550258 42.3203125 82.0546875 C39.89845726 78.35696304 37.45211099 74.67816648 35 71 C28.4 70.67 21.8 70.34 15 70 C15 85.18 15 100.36 15 116 C10.05 116 5.1 116 0 116 C0 77.72 0 39.44 0 0 Z " fill="#FEF9F4" transform="translate(217,171)"/>
<path d="M0 0 C8.58 0 17.16 0 26 0 C26.01981934 2.10366943 26.03963867 4.20733887 26.06005859 6.37475586 C26.12718506 13.35175553 26.20482043 20.32861037 26.28752708 27.30544186 C26.33731726 31.53245242 26.38364777 35.75944006 26.421875 39.98657227 C26.45894741 44.07156662 26.50536463 48.15636075 26.55806351 52.24118233 C26.57649151 53.79392521 26.5916415 55.34671083 26.60334396 56.89951897 C26.49775796 73.58728019 26.49775796 73.58728019 34 88 C39.31068963 92.46752326 45.29567497 92.53394626 51.99609375 92.33984375 C55.51383838 91.94186744 58.03488157 90.92332006 61 89 C61.66 89 62.32 89 63 89 C64.50712334 86.07361253 65.82631086 83.11301997 67.0625 80.0625 C67.40410156 79.22847656 67.74570313 78.39445312 68.09765625 77.53515625 C69.82737281 72.6754764 70.14044761 68.15022535 70.20532227 63.0065918 C70.21522186 62.32311172 70.22512146 61.63963165 70.23532104 60.93544006 C70.26675406 58.69006746 70.29162095 56.44467374 70.31640625 54.19921875 C70.33699153 52.63694223 70.3579884 51.07467109 70.37937927 49.5124054 C70.43443751 45.41076014 70.48391808 41.30906599 70.53222656 37.20733643 C70.58256061 33.01773757 70.6381844 28.82820928 70.69335938 24.63867188 C70.80074208 16.42583943 70.90174163 8.21294668 71 0 C79.25 0 87.5 0 96 0 C96.04535363 9.58880406 96.08197499 19.17753577 96.10362434 28.76642323 C96.11401983 33.21989266 96.12810081 37.6732843 96.15087891 42.12670898 C96.17275941 46.43204694 96.1846004 50.73731051 96.18975449 55.04269981 C96.19342314 56.67757016 96.20058634 58.31243686 96.21146011 59.94727516 C96.32343676 77.49550103 94.62785143 92.56195362 82.2578125 105.875 C72.21577581 115.54202287 58.28883948 118.5568072 44.75390625 118.30859375 C31.35586672 117.20719404 20.07564219 112.46643388 10.625 102.875 C3.01980027 93.75811097 -0.34890795 80.73785388 -0.22705078 69.0234375 C-0.22734283 68.27124435 -0.22763489 67.51905121 -0.22793579 66.74406433 C-0.22655584 64.28758721 -0.21105852 61.83142334 -0.1953125 59.375 C-0.19157761 57.66007655 -0.18873289 55.94515096 -0.18673706 54.23022461 C-0.17913809 49.73889163 -0.15952209 45.2476901 -0.1373291 40.75640869 C-0.11678978 36.16444679 -0.10771812 31.57246345 -0.09765625 26.98046875 C-0.07627232 17.98691242 -0.04112104 8.99348776 0 0 Z " fill="#020202" transform="translate(1107,171)"/>
<path d="M0 0 C8.58 0 17.16 0 26 0 C31.67868489 11.25505114 37.15758226 22.58218087 42.5 34 C43.23419071 35.56519063 43.96856497 37.13029517 44.703125 38.6953125 C46.47085474 42.46255865 48.23614148 46.23093986 50 50 C55.6920788 38.75373933 61.15825501 27.41638132 66.5 16 C67.23419071 14.43480937 67.96856497 12.86970483 68.703125 11.3046875 C70.47119038 7.53759323 72.2355235 3.76878475 74 0 C82.91 0 91.82 0 101 0 C99.41873116 4.74380653 97.6375534 8.96345765 95.375 13.375 C94.65353817 14.79942464 93.93218709 16.22390538 93.2109375 17.6484375 C92.65937988 18.7327002 92.65937988 18.7327002 92.09667969 19.83886719 C90.38192048 23.21799641 88.69161469 26.60924303 87 30 C86.32955736 31.34121097 85.6589843 32.68235674 84.98828125 34.0234375 C84.65779785 34.6844043 84.32731445 35.34537109 83.98681641 36.02636719 C81.10546875 41.7890625 81.10546875 41.7890625 80.15063477 43.68945312 C79.49930767 44.99838119 78.85811099 46.31239143 78.22631836 47.63085938 C76.38817683 51.42654308 74.4052037 54.96744399 72.0859375 58.4921875 C60.97715119 76.36206647 62.57162413 95.65712709 63 116 C54.42 116 45.84 116 37 116 C37.020625 113.15375 37.04125 110.3075 37.0625 107.375 C37.05524474 104.56136256 37.03434247 101.74812566 37.01220703 98.93457031 C37.0041882 97.00684269 37.00994567 95.07899909 37.03076172 93.15136719 C37.15653124 80.42878713 35.85362959 71.4144755 29.39648438 60.4642334 C26.74454887 55.78463356 24.40960546 50.93745618 22.01953125 46.12046051 C20.47051796 43.0038857 18.90619334 39.89501314 17.34375 36.78515625 C16.70698044 35.51581325 16.07026199 34.2464446 15.43359375 32.97705078 C14.13204243 30.38302566 12.82849899 27.79001475 11.5234375 25.19775391 C9.9286754 22.02988355 8.33777768 18.86010071 6.74958801 15.68893051 C5.85705815 13.90934714 4.96048028 12.13179586 4.06384277 10.35427856 C3.52908325 9.28491058 2.99432373 8.2155426 2.44335938 7.11376953 C1.97007202 6.17163605 1.49678467 5.22950256 1.00915527 4.25881958 C0 2 0 2 0 0 Z " fill="#030303" transform="translate(1216,171)"/>
<path d="M0 0 C0.89460938 -0.01611328 1.78921875 -0.03222656 2.7109375 -0.04882812 C8.89181247 -0.05332004 13.90554192 1.00382706 19.625 3.3125 C20.52089844 3.65410156 21.41679687 3.99570313 22.33984375 4.34765625 C33.54051183 9.52476645 41.75773538 19.04485683 46.625 30.3125 C47.12 33.7775 47.12 33.7775 47.625 37.3125 C42.675 37.3125 37.725 37.3125 32.625 37.3125 C31.820625 35.4975 31.01625 33.6825 30.1875 31.8125 C26.54754906 24.6259302 22.43229941 19.29870914 14.8359375 16.16015625 C3.62831209 12.9516408 -7.91409607 12.82052544 -18.375 18.3125 C-27.21930329 23.9630271 -31.70719078 32.71732245 -34.25 42.6875 C-37.38901508 59.65312914 -36.9293965 78.4417464 -27.375 93.3125 C-21.64125741 101.06190506 -13.93714305 105.15997583 -4.41748047 106.61083984 C5.39893304 107.65028077 13.33566453 105.91448639 21.625 100.3125 C28.39593959 94.83812331 32.0894038 87.75827912 33.625 79.3125 C33.955 76.0125 34.285 72.7125 34.625 69.3125 C23.735 69.3125 12.845 69.3125 1.625 69.3125 C1.625 65.6825 1.625 62.0525 1.625 58.3125 C17.135 58.3125 32.645 58.3125 48.625 58.3125 C48.625 78.1125 48.625 97.9125 48.625 118.3125 C44.665 118.3125 40.705 118.3125 36.625 118.3125 C36.625 112.0425 36.625 105.7725 36.625 99.3125 C35.965 99.3125 35.305 99.3125 34.625 99.3125 C34.398125 100.01375 34.17125 100.715 33.9375 101.4375 C30.14172438 109.75205612 23.36402361 113.88024714 15.1640625 117.35546875 C3.09394361 121.31075386 -10.58448618 120.73975629 -22.2578125 115.9140625 C-35.57816175 109.07027404 -43.76445894 97.33622906 -48.375 83.3125 C-54.23628803 64.14514278 -52.79992858 43.71952137 -44 25.75 C-37.14063522 12.91963829 -27.88029278 5.97164692 -14.24609375 1.22265625 C-9.42541605 0.08923758 -4.93328057 -0.01761886 0 0 Z " fill="#FEFAF5" transform="translate(430.375,168.6875)"/>
<path d="M0 0 C240.57 0 481.14 0 729 0 C729 113.85 729 227.7 729 345 C488.43 345 247.86 345 0 345 C0 231.15 0 117.3 0 0 Z M1 2 C1 114.86 1 227.72 1 344 C240.58 343.67 480.16 343.34 727 343 C727 230.8 727 118.6 727 3 C725.99534607 1.77452095 725.99534607 1.77452095 723.96808526 1.87532884 C723.06355362 1.87548482 722.15902198 1.8756408 721.22708029 1.8758015 C719.66486814 1.87243056 719.66486814 1.87243056 718.07109615 1.86899152 C716.33031101 1.87293204 716.33031101 1.87293204 714.55435848 1.87695217 C713.32913372 1.87579833 712.10390895 1.87464448 710.84155616 1.87345567 C707.40995359 1.87124949 703.97840602 1.87357823 700.54680863 1.87773381 C696.82517551 1.88115105 693.10354552 1.87880047 689.38191181 1.87715632 C682.84914478 1.8750766 676.31638682 1.8767365 669.78362083 1.88079453 C660.06952887 1.88681203 650.35544268 1.88713196 640.6413492 1.88625254 C624.30330635 1.88493639 607.96526754 1.88828853 591.62722588 1.89426994 C575.44253965 1.90018007 559.2578551 1.90403449 543.0731678 1.90512276 C542.06813513 1.9051915 541.06310245 1.90526024 540.02761424 1.90533106 C534.92389064 1.90566938 529.82016703 1.90597077 524.71644343 1.90625793 C488.53467533 1.90836025 452.35290943 1.91510292 416.17114258 1.92456055 C381.01359061 1.93373986 345.85603925 1.94080908 310.69848633 1.94506836 C308.48896947 1.945339 306.2794526 1.94560971 304.06993574 1.94588047 C286.11767132 1.94806913 268.16540688 1.95011176 250.21314243 1.95211896 C167.14209287 1.96151231 84.07104904 1.98158115 1 2 Z " fill="#F1A271" transform="translate(42,39)"/>
<path d="M0 0 C4.62 0 9.24 0 14 0 C14 17.16 14 34.32 14 52 C33.47 52 52.94 52 73 52 C73 34.84 73 17.68 73 0 C77.62 0 82.24 0 87 0 C87 38.28 87 76.56 87 116 C82.38 116 77.76 116 73 116 C73 98.51 73 81.02 73 63 C53.53 63 34.06 63 14 63 C14 80.49 14 97.98 14 116 C9.38 116 4.76 116 0 116 C0 77.72 0 39.44 0 0 Z " fill="#FEFDFA" transform="translate(514,171)"/>
<path d="M0 0 C27.39 0 54.78 0 83 0 C83 4.29 83 8.58 83 13 C71.78 13 60.56 13 49 13 C49 46.99 49 80.98 49 116 C44.38 116 39.76 116 35 116 C35 82.01 35 48.02 35 13 C23.45 13 11.9 13 0 13 C0 8.71 0 4.42 0 0 Z " fill="#FEFEFC" transform="translate(633,171)"/>
<path d="M0 0 C8.848125 -0.0928125 8.848125 -0.0928125 17.875 -0.1875 C19.71562012 -0.21481201 21.55624023 -0.24212402 23.45263672 -0.27026367 C34.40187927 -0.36630197 44.00776796 -0.27681953 52.625 7.3046875 C57.39221777 13.18245032 56.66628783 20.86002666 56 28 C54.47031863 32.92805459 51.31329616 36.25517517 47 39 C40.98439558 41.66619246 36.22542888 42.41821769 29.6875 42.29296875 C28.92888672 42.28994751 28.17027344 42.28692627 27.38867188 42.28381348 C24.59230676 42.26828122 21.79613769 42.22639899 19 42.1875 C12.73 42.125625 6.46 42.06375 0 42 C0 28.14 0 14.28 0 0 Z " fill="#FC9351" transform="translate(115,233)"/>
<path d="M0 0 C4.723125 -0.0825 9.44625 -0.165 14.3125 -0.25 C15.77856689 -0.28641602 17.24463379 -0.32283203 18.75512695 -0.36035156 C29.1399408 -0.44748309 38.83803263 1.06232774 47 8 C51.33875442 15.11680581 51.3064801 23.57687507 49.37890625 31.578125 C47.12429219 36.82887062 43.19258942 39.81096721 38 42 C30.28266058 44.63340492 22.577905 44.22348978 14.5 44.125 C9.715 44.08375 4.93 44.0425 0 44 C0 29.48 0 14.96 0 0 Z " fill="#FE914D" transform="translate(232,184)"/>
<path d="M0 0 C5.28 -0.04125 10.56 -0.0825 16 -0.125 C18.475 -0.15231201 18.475 -0.15231201 21 -0.18017578 C22.33333004 -0.18602649 23.66666371 -0.19112067 25 -0.1953125 C26.00740234 -0.2106604 26.00740234 -0.2106604 27.03515625 -0.22631836 C34.56123327 -0.22903732 41.06756458 1.14618921 47 6 C50.83840314 9.93941375 51.29837206 13.18289325 51.4375 18.5 C51.20138079 25.20273898 50.11117666 28.83855723 45.375 33.6875 C36.60375082 40.28934535 26.34020435 39.36064856 15.9375 39.1875 C10.678125 39.125625 5.41875 39.06375 0 39 C0 26.13 0 13.26 0 0 Z " fill="#FE914C" transform="translate(115,183)"/>
<path d="M0 0 C4.95 0 9.9 0 15 0 C15 38.28 15 76.56 15 116 C10.05 116 5.1 116 0 116 C0 77.72 0 39.44 0 0 Z " fill="#FEFEFE" transform="translate(330,171)"/>
<path d="M0 0 C4.62 -0.103125 9.24 -0.20625 14 -0.3125 C15.44117188 -0.35802002 16.88234375 -0.40354004 18.3671875 -0.45043945 C25.73535261 -0.5299262 31.50756065 -0.32883879 37 5 C40.26521681 9.89782521 39.66816732 15.28189438 39 21 C37.35389956 25.08079784 34.56687463 26.72252282 30.65625 28.63671875 C24.75850628 30.75385752 18.68139445 30.31892829 12.5 30.1875 C8.375 30.125625 4.25 30.06375 0 30 C0 20.1 0 10.2 0 0 Z " fill="#FAFAFA" transform="translate(1029,237)"/>
<path d="M0 0 C3.114375 -0.0825 6.22875 -0.165 9.4375 -0.25 C10.39970459 -0.28641602 11.36190918 -0.32283203 12.35327148 -0.36035156 C19.85480136 -0.45525919 25.22513588 1.69825359 31.5625 5.5625 C34.05773982 9.79355883 33.79136384 14.24493554 33 19 C31.36474752 22.52797025 29.08495777 24.49700534 25.53125 26.14453125 C20.53775968 27.35423742 15.73950489 27.21012875 10.625 27.125 C7.11875 27.08375 3.6125 27.0425 0 27 C0 18.09 0 9.18 0 0 Z " fill="#F8F8F8" transform="translate(1029,191)"/>
<path d="M0 0 C4.95 0 9.9 0 15 0 C15 38.28 15 76.56 15 116 C10.05 116 5.1 116 0 116 C0 77.72 0 39.44 0 0 Z M2 2 C0.81197872 4.37604256 0.89055277 5.76725914 0.91770935 8.41653442 C0.92474884 9.3448407 0.93178833 10.27314697 0.93904114 11.22958374 C0.95198715 12.25097443 0.96493317 13.27236511 0.97827148 14.32470703 C0.98787903 15.39789185 0.99748657 16.47107666 1.00738525 17.57678223 C1.04046404 21.13719055 1.08076255 24.69747954 1.12109375 28.2578125 C1.14538619 30.72117691 1.16923017 33.18454577 1.19264221 35.6479187 C1.25557033 42.14171415 1.32461222 48.63543096 1.39489746 55.12915039 C1.46550218 61.75142831 1.53036615 68.37376213 1.59570312 74.99609375 C1.72482793 87.99745697 1.86021225 100.99874728 2 114 C6.31619303 114.90338924 8.50797614 114.89840477 13 114 C13 77.04 13 40.08 13 2 C9.37 2 5.74 2 2 2 Z " fill="#FFEDDA" transform="translate(330,171)"/>
<path d="M0 0 C54 0 54 0 58 2 C39.52 2 21.04 2 2 2 C2 38.96 2 75.92 2 114 C11.714375 113.855625 21.42875 113.71125 31.4375 113.5625 C34.50861084 113.51939697 37.57972168 113.47629395 40.74389648 113.43188477 C43.16130174 113.39378123 45.5787013 113.35531377 47.99609375 113.31640625 C49.2648938 113.29993042 50.53369385 113.28345459 51.84094238 113.26647949 C53.6375531 113.23620667 53.6375531 113.23620667 55.47045898 113.20532227 C56.51636703 113.18977798 57.56227509 113.1742337 58.63987732 113.15821838 C60.95640697 113.26300176 60.95640697 113.26300176 62 112 C63.66617115 111.95936168 65.33388095 111.957279 67 112 C49.81030197 123.45979869 6.78258882 116 0 116 C0 77.72 0 39.44 0 0 Z " fill="#FEECD7" transform="translate(101,171)"/>
<path d="M0 0 C19.47 0 38.94 0 59 0 C59 17.49 59 34.98 59 53 C58.01 52.505 58.01 52.505 57 52 C56.98969254 51.40087296 56.97938507 50.80174591 56.96876526 50.1844635 C56.86093035 43.97189912 56.74631456 37.75948659 56.62768555 31.54711914 C56.58426261 29.22586227 56.54259316 26.90457192 56.50268555 24.58325195 C56.4451606 21.25461722 56.38141575 17.92615215 56.31640625 14.59765625 C56.29969376 13.55287613 56.28298126 12.50809601 56.26576233 11.43165588 C56.2358445 9.99027504 56.2358445 9.99027504 56.20532227 8.51977539 C56.18200584 7.24403404 56.18200584 7.24403404 56.15821838 5.94252014 C56.21055171 3.99476202 56.21055171 3.99476202 55 3 C53.31290653 2.87700834 51.62079097 2.82214742 49.92944336 2.79467773 C48.84839828 2.77473251 47.76735321 2.75478729 46.65354919 2.73423767 C45.4775264 2.71752518 44.3015036 2.70081268 43.08984375 2.68359375 C41.29408653 2.6524221 41.29408653 2.6524221 39.46205139 2.62062073 C35.62059513 2.55499721 31.77906799 2.49618097 27.9375 2.4375 C25.34048733 2.39432695 22.74348194 2.35071307 20.14648438 2.30664062 C13.76439464 2.19846961 7.38225467 2.0994912 1 2 C1 18.83 1 35.66 1 53 C0.67 53 0.34 53 0 53 C0 35.51 0 18.02 0 0 Z " fill="#F1A677" transform="translate(528,234)"/>
<path d="M0 0 C0.33 0 0.66 0 1 0 C1 16.5 1 33 1 50 C19.48 50 37.96 50 57 50 C57 33.5 57 17 57 0 C57.66 0 58.32 0 59 0 C59 17.16 59 34.32 59 52 C39.53 52 20.06 52 0 52 C0 34.84 0 17.68 0 0 Z " fill="#EB9B69" transform="translate(528,171)"/>
<path d="M0 0 C27.39 0 54.78 0 83 0 C83 4.29 83 8.58 83 13 C71.78 13 60.56 13 49 13 C49 12.67 49 12.34 49 12 C59.89 12 70.78 12 82 12 C82 8.7 82 5.4 82 2 C55.6 2 29.2 2 2 2 C2 5.3 2 8.6 2 12 C12.89 12 23.78 12 35 12 C35 12.33 35 12.66 35 13 C23.45 13 11.9 13 0 13 C0 8.71 0 4.42 0 0 Z " fill="#FEEFDA" transform="translate(633,171)"/>
<path d="M0 0 C4.62 0 9.24 0 14 0 C14 38.28 14 76.56 14 116 C9.38 116 4.76 116 0 116 C0 98.51 0 81.02 0 63 C0.33 63 0.66 63 1 63 C1 80.16 1 97.32 1 115 C4.96 115 8.92 115 13 115 C13 77.71 13 40.42 13 2 C9.37 2 5.74 2 2 2 C1.67 18.5 1.34 35 1 52 C0.67 52 0.34 52 0 52 C0 34.84 0 17.68 0 0 Z " fill="#FFF6E2" transform="translate(587,171)"/>
<path d="M0 0 C5.28 -0.04125 10.56 -0.0825 16 -0.125 C18.475 -0.15231201 18.475 -0.15231201 21 -0.18017578 C22.33333004 -0.18602649 23.66666371 -0.19112067 25 -0.1953125 C26.00740234 -0.2106604 26.00740234 -0.2106604 27.03515625 -0.22631836 C34.01075019 -0.22883844 40.17489405 0.99523966 46 5 C44.68 5.33 43.36 5.66 42 6 C42 5.34 42 4.68 42 4 C37.92221613 2.87451671 33.94147555 2.77517902 29.734375 2.68359375 C29.03070801 2.66494263 28.32704102 2.6462915 27.60205078 2.6270752 C24.98482274 2.55900923 22.36739729 2.49871295 19.75 2.4375 C10.96375 2.2209375 10.96375 2.2209375 2 2 C2 13.88 2 25.76 2 38 C6.228125 37.855625 10.45625 37.71125 14.8125 37.5625 C16.1219458 37.51939697 17.4313916 37.47629395 18.78051758 37.43188477 C25.88306025 37.17866228 32.93093248 36.73739793 40 36 C36.84770529 39.15229471 33.76334277 38.97590753 29.40307617 39.11352539 C28.03303018 39.11327805 26.66297678 39.10785921 25.29296875 39.09765625 C24.3274408 39.09614563 24.3274408 39.09614563 23.34240723 39.09460449 C20.95741981 39.08940599 18.57245795 39.07544492 16.1875 39.0625 C10.845625 39.041875 5.50375 39.02125 0 39 C0 26.13 0 13.26 0 0 Z " fill="#F0A577" transform="translate(115,183)"/>
<path d="M0 0 C0.33 0 0.66 0 1 0 C1 19.47 1 38.94 1 59 C-2.63 59 -6.26 59 -10 59 C-10.33 52.4 -10.66 45.8 -11 39 C-10.34 39 -9.68 39 -9 39 C-7.40587716 42.18824568 -7.89825265 45.62896662 -7.9375 49.125 C-7.94201172 49.87910156 -7.94652344 50.63320313 -7.95117188 51.41015625 C-7.96296501 53.27347127 -7.98090058 55.13674555 -8 57 C-5.36 57 -2.72 57 0 57 C0 38.19 0 19.38 0 0 Z " fill="#FEF8E8" transform="translate(477,228)"/>
<path d="M0 0 C4.8675 -0.04125 9.735 -0.0825 14.75 -0.125 C16.27979492 -0.14320801 17.80958984 -0.16141602 19.38574219 -0.18017578 C20.59391602 -0.1851709 21.80208984 -0.19016602 23.046875 -0.1953125 C24.28276367 -0.20578613 25.51865234 -0.21625977 26.79199219 -0.22705078 C29.81659371 -0.01298081 31.46985651 0.40346841 34 2 C32.02 2.33 30.04 2.66 28 3 C28 2.34 28 1.68 28 1 C19.09 1 10.18 1 1 1 C1 14.86 1 28.72 1 43 C10.57 43 20.14 43 30 43 C30 43.33 30 43.66 30 44 C20.1 44 10.2 44 0 44 C0 29.48 0 14.96 0 0 Z " fill="#EF955E" transform="translate(232,184)"/>
<path d="M0 0 C-1 3 -1 3 -3.02612305 4.17529297 C-6.89946115 5.24943599 -10.59824005 5.24779717 -14.58203125 5.1953125 C-15.39621017 5.1924826 -16.2103891 5.18965271 -17.04924011 5.18673706 C-19.637146 5.17558584 -22.22469958 5.15049083 -24.8125 5.125 C-26.57226061 5.11496365 -28.33202667 5.10583894 -30.09179688 5.09765625 C-34.39466598 5.0756631 -38.69727336 5.04116836 -43 5 C-43 4.67 -43 4.34 -43 4 C-42.07775635 3.98541748 -41.1555127 3.97083496 -40.20532227 3.95581055 C-36.74398482 3.89431526 -33.28338547 3.82008523 -29.82250977 3.73754883 C-28.33205243 3.70454205 -26.84147738 3.67643673 -25.35083008 3.65356445 C-16.75388256 3.51811137 -8.01337426 0 0 0 Z " fill="#FFF9E8" transform="translate(159,218)"/>
<path d="M0 0 C0.33 0 0.66 0 1 0 C1.09765625 6.15234375 1.09765625 6.15234375 1 8 C0.67 8.33 0.34 8.66 0 9 C-0.22789426 10.77690109 -0.39489788 12.56169968 -0.53515625 14.34765625 C-0.62216797 15.42724609 -0.70917969 16.50683594 -0.79882812 17.61914062 C-0.88583984 18.75544922 -0.97285156 19.89175781 -1.0625 21.0625 C-1.15337891 22.20267578 -1.24425781 23.34285156 -1.33789062 24.51757812 C-1.56264546 27.34475741 -1.78315711 30.17220464 -2 33 C-2.33 33 -2.66 33 -3 33 C-3.30854946 21.53795877 -3.39129971 11.06209668 0 0 Z " fill="#FEE9D3" transform="translate(382,205)"/>
<path d="M0 0 C0.66 0 1.32 0 2 0 C2 6.27 2 12.54 2 19 C1.67 19 1.34 19 1 19 C0.93941406 18.30132812 0.87882812 17.60265625 0.81640625 16.8828125 C0.73261719 15.97273438 0.64882813 15.06265625 0.5625 14.125 C0.48128906 13.22007812 0.40007812 12.31515625 0.31640625 11.3828125 C0.13010715 8.98889139 0.13010715 8.98889139 -1 7 C-2.32 8.32 -3.64 9.64 -5 11 C-5.66 10.67 -6.32 10.34 -7 10 C-6.57847656 9.44570313 -6.15695312 8.89140625 -5.72265625 8.3203125 C-5.17480469 7.59585937 -4.62695312 6.87140625 -4.0625 6.125 C-3.51722656 5.40570313 -2.97195313 4.68640625 -2.41015625 3.9453125 C-0.96035376 2.05642921 -0.96035376 2.05642921 0 0 Z " fill="#EA9A69" transform="translate(465,268)"/>
<path d="M0 0 C4.19920237 -0.04953687 8.39824869 -0.08578411 12.59765625 -0.10986328 C14.02542078 -0.11990427 15.45316483 -0.13353981 16.88085938 -0.15087891 C18.93624941 -0.17521152 20.99136692 -0.18650202 23.046875 -0.1953125 C24.28276367 -0.20578613 25.51865234 -0.21625977 26.79199219 -0.22705078 C29.81659371 -0.01298081 31.46985651 0.40346841 34 2 C32.02 2.33 30.04 2.66 28 3 C28 2.34 28 1.68 28 1 C18.76 1 9.52 1 0 1 C0 0.67 0 0.34 0 0 Z " fill="#EC9C69" transform="translate(232,184)"/>
<path d="M0 0 C2 2 2 2 2.265625 4.1015625 C2.23068456 9.74444295 1.60420403 14.58581141 0 20 C-0.33 20 -0.66 20 -1 20 C-1.11044961 13.26257354 -0.70132913 6.70019789 0 0 Z " fill="#FDE8D3" transform="translate(184,246)"/>
<path d="M0 0 C2.31 0.66 4.62 1.32 7 2 C7 3.32 7 4.64 7 6 C7.66 6 8.32 6 9 6 C9.67756882 7.55780332 10.34159457 9.12150096 11 10.6875 C11.37125 11.55761719 11.7425 12.42773438 12.125 13.32421875 C13.01870488 16.0572002 13.16449676 18.14700934 13 21 C11.85381291 18.73478665 10.74616686 16.45883667 9.66796875 14.16015625 C5.90005532 6.27577531 5.90005532 6.27577531 0 0 Z " fill="#F19A66" transform="translate(284,179)"/>
<path d="M0 0 C2 2 2 2 3 9 C-1.95 9 -6.9 9 -12 9 C-12 8.67 -12 8.34 -12 8 C-5.565 7.505 -5.565 7.505 1 7 C0.67 4.69 0.34 2.38 0 0 Z " fill="#FDDABE" transform="translate(475,197)"/>
<path d="M0 0 C0.33 0.66 0.66 1.32 1 2 C-0.24970939 4.96359654 -1.89646189 7.56899818 -4 10 C-6.8125 10.5 -6.8125 10.5 -9 10 C-8.2575 9.278125 -7.515 8.55625 -6.75 7.8125 C-4.30709485 5.31407427 -2.1318953 2.76356798 0 0 Z " fill="#F29864" transform="translate(291,225)"/>
<path d="M0 0 C3.3 0 6.6 0 10 0 C10.33 0.99 10.66 1.98 11 3 C11.66 3 12.32 3 13 3 C13 3.66 13 4.32 13 5 C11.58208592 4.54554036 10.16571954 4.08625056 8.75 3.625 C7.96109375 3.36976563 7.1721875 3.11453125 6.359375 2.8515625 C4 2 4 2 0 0 Z " fill="#F19D68" transform="translate(155,171)"/>
<path d="M0 0 C7.81636537 1.91722169 7.81636537 1.91722169 10 5 C10 5.66 10 6.32 10 7 C5.04303419 5.76075855 2.88341534 4.21422242 0 0 Z " fill="#F09864" transform="translate(407,266)"/>
<path d="M0 0 C0.33 0.66 0.66 1.32 1 2 C0.01 2.99 -0.98 3.98 -2 5 C-1.01 5.33 -0.02 5.66 1 6 C-1 7 -1 7 -4.125 6.0625 C-5.07375 5.711875 -6.0225 5.36125 -7 5 C-7 4.34 -7 3.68 -7 3 C-4.69 2.01 -2.38 1.02 0 0 Z " fill="#EB9E6E" transform="translate(169,222)"/>
<path d="M0 0 C1.14926266 0.95421808 2.29430541 1.91352045 3.4375 2.875 C4.07558594 3.40867187 4.71367187 3.94234375 5.37109375 4.4921875 C7 6 7 6 8 8 C5.125 7.375 5.125 7.375 2 6 C0.625 2.875 0.625 2.875 0 0 Z " fill="#FEEBD7" transform="translate(402,262)"/>
<path d="M0 0 C0.66 0.33 1.32 0.66 2 1 C-1.12621626 4.39417765 -3.56541027 6.6062718 -8 8 C-5.33333333 5.33333333 -2.66666667 2.66666667 0 0 Z " fill="#FEEBD7" transform="translate(402,176)"/>
<path d="M0 0 C1.8125 0.1875 1.8125 0.1875 4 1 C5.625 3.5 5.625 3.5 7 6 C7.66 6.33 8.32 6.66 9 7 C8.67 7.66 8.34 8.32 8 9 C5.06799526 6.14723863 2.35684596 3.34920216 0 0 Z " fill="#FFF0DD" transform="translate(390,268)"/>
<path d="M0 0 C1.65 0 3.3 0 5 0 C3.625 2.5 3.625 2.5 2 5 C1.34 5 0.68 5 0 5 C-0.33 4.01 -0.66 3.02 -1 2 C-0.67 1.34 -0.34 0.68 0 0 Z " fill="#F49A61" transform="translate(274,218)"/>
<path d="M0 0 C0.6875 1.6875 0.6875 1.6875 1 4 C-0.1875 6.6875 -0.1875 6.6875 -2 9 C-4.11328125 9.64453125 -4.11328125 9.64453125 -6 10 C-5.65066406 9.52949219 -5.30132812 9.05898437 -4.94140625 8.57421875 C-4.48636719 7.95160156 -4.03132812 7.32898438 -3.5625 6.6875 C-2.88380859 5.76517578 -2.88380859 5.76517578 -2.19140625 4.82421875 C-0.82663692 2.90322899 -0.82663692 2.90322899 0 0 Z " fill="#FEE9D4" transform="translate(165,208)"/>
<path d="M0 0 C0.33 0.99 0.66 1.98 1 3 C-0.40445835 5.2636564 -2.1967913 7.0208685 -4 9 C-4.33 8.34 -4.66 7.68 -5 7 C-3.35 4.69 -1.7 2.38 0 0 Z " fill="#FEEED9" transform="translate(392,186)"/>
<path d="M0 0 C-0.33 0.99 -0.66 1.98 -1 3 C-4.3 3.33 -7.6 3.66 -11 4 C-11 3.67 -11 3.34 -11 3 C-9.54293274 2.49632243 -8.08429904 1.99717444 -6.625 1.5 C-5.81289062 1.2215625 -5.00078125 0.943125 -4.1640625 0.65625 C-2 0 -2 0 0 0 Z " fill="#FFEFDC" transform="translate(159,218)"/>
<path d="M0 0 C1.32 0 2.64 0 4 0 C4.33 2.64 4.66 5.28 5 8 C2.98863724 5.44008376 1.37154504 2.95409701 0 0 Z " fill="#F19C66" transform="translate(470,188)"/>
</svg>
