<?xml version="1.0" encoding="UTF-8"?>
<svg version="1.1" xmlns="http://www.w3.org/2000/svg" width="1439" height="946">
<path d="M0 0 C474.87 0 949.74 0 1439 0 C1439 312.18 1439 624.36 1439 946 C964.13 946 489.26 946 0 946 C0 633.82 0 321.64 0 0 Z " fill="#FEFEFE" transform="translate(0,0)"/>
<path d="M0 0 C1.26926834 0.00273422 1.26926834 0.00273422 2.56417847 0.00552368 C55.71762359 0.19737277 110.45949059 17.80533874 150.75 53.3125 C151.71035156 54.15167969 152.67070313 54.99085938 153.66015625 55.85546875 C169.28253409 69.71586717 185.37262874 86.38258659 192.75 106.3125 C192.42 107.3025 192.09 108.2925 191.75 109.3125 C191.15316406 108.80203125 190.55632812 108.2915625 189.94140625 107.765625 C154.29927463 77.89614174 110.9226367 57.0008228 65.75 46.3125 C64.94111328 46.11962402 64.13222656 45.92674805 63.29882812 45.72802734 C1.50563366 31.35722563 -64.85976294 41.20049027 -118.91650391 74.81494141 C-143.13174979 90.35546435 -166.92272042 110.49340137 -183.25 134.3125 C-183.70213867 134.95799805 -184.15427734 135.60349609 -184.62011719 136.26855469 C-205.76952538 166.54842024 -222.34863653 199.80228383 -229.25 236.3125 C-229.41226074 237.1473291 -229.57452148 237.9821582 -229.74169922 238.84228516 C-234.58300799 264.95737385 -234.33020684 294.26571957 -229.25 320.3125 C-229.00854248 321.57392822 -229.00854248 321.57392822 -228.76220703 322.86083984 C-221.52985369 359.24492671 -206.53582009 393.42912701 -183.25 422.3125 C-182.486875 423.26898437 -181.72375 424.22546875 -180.9375 425.2109375 C-168.79800143 440.2588576 -155.56714717 454.46175106 -140.25 466.3125 C-139.24582031 467.11042969 -138.24164063 467.90835937 -137.20703125 468.73046875 C-109.78668983 490.39722751 -78.41206642 505.67856215 -44.25 513.3125 C-43.24694824 513.53993896 -43.24694824 513.53993896 -42.22363281 513.77197266 C-37.58768771 514.79796051 -32.94482187 515.61989323 -28.25 516.3125 C-27.54939453 516.41691406 -26.84878906 516.52132812 -26.12695312 516.62890625 C41.39972367 526.07905234 113.28574864 508.66068852 168.00195312 467.62353516 C169.37881748 466.56610085 170.74971889 465.50081957 172.11230469 464.42504883 C173.75 463.3125 173.75 463.3125 175.75 463.3125 C172.35985395 483.99239092 154.60419941 501.13290052 138.25 513.125 C131.62655593 517.86604488 124.78124094 522.20066319 117.75 526.3125 C116.8839917 526.83360352 116.8839917 526.83360352 116.00048828 527.36523438 C92.08498892 541.74680862 66.22844836 550.79858651 38.75 555.3125 C38.0477832 555.43109375 37.34556641 555.5496875 36.62207031 555.671875 C-27.25462498 565.88728177 -96.51542642 547.14208423 -148.71875 509.8671875 C-151.60587572 507.7316074 -154.43915437 505.5472857 -157.25 503.3125 C-158.1575 502.59707031 -159.065 501.88164063 -160 501.14453125 C-177.46891868 487.12473146 -194.68825338 471.18151642 -208.25 453.3125 C-209.24709045 452.05341285 -210.2459342 450.79571308 -211.24609375 449.5390625 C-218.83403948 439.9202687 -225.6050812 429.94512277 -231.94677734 419.46533203 C-233.09338237 417.5712213 -234.25759943 415.68941582 -235.42578125 413.80859375 C-248.77884473 391.57132772 -257.03001158 366.40359474 -263.0625 341.3125 C-263.34053467 340.17611084 -263.61856934 339.03972168 -263.9050293 337.86889648 C-268.23031544 319.02592237 -269.76003503 300.01780039 -269.64111328 280.72045898 C-269.62494602 277.61462916 -269.64113373 274.51008943 -269.66015625 271.40429688 C-269.67940009 253.82409505 -267.66873596 236.80655704 -263.625 219.6875 C-263.37121582 218.61105225 -263.11743164 217.53460449 -262.85595703 216.42553711 C-253.81074745 179.41193971 -237.8755761 144.02290315 -215.25 113.3125 C-214.83153809 112.7438623 -214.41307617 112.17522461 -213.98193359 111.58935547 C-211.14690692 107.76765544 -208.22027216 104.03001044 -205.25 100.3125 C-204.11304688 98.86617187 -204.11304688 98.86617187 -202.953125 97.390625 C-190.49160292 82.07168385 -175.96272301 67.07582295 -159.9140625 55.51904297 C-158.11932775 54.21775495 -156.3562642 52.87972131 -154.59375 51.53515625 C-146.16477429 45.15079516 -137.48812401 39.45405273 -128.25 34.3125 C-127.4146875 33.8469873 -126.579375 33.38147461 -125.71875 32.90185547 C-101.80664878 19.71326659 -76.87580909 10.3123942 -50.1875 4.5625 C-49.27943604 4.36366211 -48.37137207 4.16482422 -47.43579102 3.95996094 C-31.76985842 0.75559686 -15.95028642 -0.07212496 0 0 Z " fill="#EC4A01" transform="translate(484.25,191.6875)"/>
<path d="M0 0 C125.33485606 0 125.33485606 0 147.1081543 20.79125977 C156.48629897 30.30354151 161.48380422 42.36394028 161.546875 55.671875 C161.53140625 56.77015625 161.5159375 57.8684375 161.5 59 C161.52320313 60.64742188 161.52320313 60.64742188 161.546875 62.328125 C161.48001674 76.43521731 155.69829438 88.28812216 146 98.4375 C142.60354968 101.66810802 139.18417853 103.90791073 135 106 C137.52290282 107.68193522 140.07031157 109.12509704 142.734375 110.56274414 C150.03517852 114.55537107 156.13146851 119.03384044 162 125 C162.58394531 125.58523438 163.16789063 126.17046875 163.76953125 126.7734375 C173.78556828 137.57554326 176.73708179 151.49713266 176.28125 165.78515625 C175.47081541 180.72754402 169.43233594 194.26757994 159 205 C118.42978853 241.3279655 42.80348914 227 0 227 C0 152.09 0 77.18 0 0 Z " fill="#EA4900" transform="translate(485,294)"/>
<path d="M0 0 C118.33333333 0 118.33333333 0 143.25 17.25 C154.00199872 28.00199872 160.08629923 40.67878371 160.38061523 55.88671875 C160.34015266 72.91618527 155.50254069 85.95790445 143.28515625 98.1484375 C140.05917259 100.76231144 136.55407666 102.86312693 133 105 C134.66675781 105.81791016 134.66675781 105.81791016 136.3671875 106.65234375 C145.32276947 111.15078364 153.02161051 115.65504141 160 123 C160.58007812 123.58394531 161.16015625 124.16789063 161.7578125 124.76953125 C171.50875729 135.23097202 174.75436651 148.9984815 174.28125 162.94140625 C173.29964662 180.1562755 166.47737203 193.4023337 154 205 C115.73007649 238.71672478 37.00551662 225 0 225 C0 150.75 0 76.5 0 0 Z " fill="#EA4900" transform="translate(707,556)"/>
<path d="M0 0 C1.08539062 -0.01160156 2.17078125 -0.02320313 3.2890625 -0.03515625 C18.91137173 0.02077087 31.31969045 4.49810126 42.7734375 15.09375 C45.00403221 17.37913125 47.00502874 19.88128592 49 22.375 C49.33 15.775 49.66 9.175 50 2.375 C61.22 2.375 72.44 2.375 84 2.375 C84.04522239 24.05496163 84.08203309 45.73488482 84.10362434 67.41488171 C84.11391792 77.48225282 84.12794144 87.54959246 84.15087891 97.61694336 C84.17087167 106.39606683 84.18373037 115.17516749 84.18817699 123.9543131 C84.19077443 128.59876888 84.19683923 133.24315943 84.21146011 137.88759422 C84.22513721 142.26813941 84.22920238 146.64859312 84.22621536 151.02915764 C84.22676103 152.6281967 84.2306777 154.22723915 84.23841095 155.82625961 C84.34382723 178.76833461 80.09413053 198.7209507 63.79296875 215.8359375 C43.55240081 234.23645381 15.04746055 236.54576983 -11 235.375 C-29.24752368 233.96951632 -53.27514129 228.74177596 -66 214.375 C-64.4637306 209.98209992 -62.126319 206.28529944 -59.5625 202.4375 C-56.74166316 198.19013883 -54.19374694 193.99527088 -52 189.375 C-48.35461492 190.73762949 -44.93266514 192.40214841 -41.47973633 194.19311523 C-27.770269 201.28794895 -15.88125432 204.56075141 -0.4375 204.625 C0.77486328 204.645625 1.98722656 204.66625 3.23632812 204.6875 C16.13887237 204.74284603 27.95065534 202.60900156 37.8125 193.74609375 C47.90321125 182.87335238 48.34108116 168.20351838 48.125 154.125 C48.11597656 152.98675781 48.10695313 151.84851563 48.09765625 150.67578125 C48.0744028 147.90862119 48.04172868 145.1419324 48 142.375 C47.40687012 143.39255371 47.40687012 143.39255371 46.80175781 144.43066406 C46.27420898 145.32495117 45.74666016 146.21923828 45.203125 147.140625 C44.68395508 148.02524414 44.16478516 148.90986328 43.62988281 149.82128906 C36.58724848 160.8557341 24.13784301 167.08719636 11.6394043 169.90771484 C-7.71436144 173.33414234 -26.69666315 169.04940535 -43 158.375 C-59.74036379 146.25029207 -68.68530998 126.30094366 -72.09375 106.38671875 C-73.16284291 99.10089468 -73.34544777 91.91738328 -73.3125 84.5625 C-73.31034485 83.90513855 -73.3081897 83.2477771 -73.30596924 82.57049561 C-73.17842749 58.28669401 -67.28262801 36.68000995 -50.37109375 18.65625 C-36.62415847 5.43020354 -18.7501796 -0.2004176 0 0 Z " fill="#EA4901" transform="translate(1017,351.625)"/>
<path d="M0 0 C11.88 0 23.76 0 36 0 C36.33 30.03 36.66 60.06 37 91 C39.31 87.7 41.62 84.4 44 81 C53.67842955 71.02377262 66.2734312 64.15904987 80.31640625 63.6640625 C100.33105851 63.41182909 115.81128825 64.60593991 131.25 78.625 C147.36006119 95.89049591 146.57366083 118.86760295 146.390625 140.91015625 C146.3831496 143.57630231 146.37726561 146.24240511 146.37347412 148.90855408 C146.36114783 155.16258509 146.32847009 161.4163292 146.28807616 167.6702351 C146.24303169 174.8022545 146.22129017 181.93428918 146.20129442 189.06641591 C146.15972523 203.71110947 146.08650621 218.35549657 146 233 C134.12 233 122.24 233 110 233 C109.9906543 229.77138184 109.98130859 226.54276367 109.97167969 223.21630859 C109.93779912 212.50737955 109.88218872 201.79864096 109.81609726 191.08986473 C109.77671432 184.60189224 109.74448075 178.11405362 109.72900391 171.62597656 C109.71377696 165.35584679 109.67922417 159.08608528 109.63169098 152.81612015 C109.61693936 150.43297159 109.60896259 148.04977045 109.60811615 145.66657639 C110.10381004 123.3376445 110.10381004 123.3376445 100.83984375 103.6171875 C91.76742623 95.64270585 80.57090372 95.32780113 69.11230469 95.83398438 C60.26957941 96.52897434 53.48083344 100.1746529 47.1953125 106.30859375 C38.92929927 116.44254947 36.71090068 128.69599225 36.68115234 141.38500977 C36.66608391 142.87927742 36.66608391 142.87927742 36.65071106 144.4037323 C36.62004732 147.66628491 36.60289085 150.92875609 36.5859375 154.19140625 C36.56721233 156.46541537 36.54763792 158.73941764 36.5272522 161.01341248 C36.47606765 166.9760025 36.43636884 172.93861502 36.39910889 178.90130615 C36.35898331 184.99480694 36.30793007 191.08821527 36.2578125 197.18164062 C36.16121516 209.12103505 36.07776961 221.06046808 36 233 C24.12 233 12.24 233 0 233 C0 156.11 0 79.22 0 0 Z " fill="#EA4901" transform="translate(1143,288)"/>
<path d="M0 0 C13.2 0 26.4 0 40 0 C42.69558897 6.73897242 45.26330701 13.43516864 47.6171875 20.2890625 C47.95103455 21.25446457 48.28488159 22.21986664 48.62884521 23.21452332 C49.34289196 25.28007903 50.05587836 27.34600155 50.7678833 29.41226196 C52.65814345 34.89760122 54.55627672 40.3802175 56.453125 45.86328125 C56.8358255 46.97025864 57.218526 48.07723602 57.61282349 49.21775818 C61.25818587 59.75824072 64.93593513 70.28724566 68.625 80.8125 C68.9001947 81.59788147 69.1753894 82.38326294 69.45892334 83.19244385 C69.99493215 84.72212648 70.53105305 86.25176984 71.06729126 87.78137207 C71.58391418 89.25571446 72.10002011 90.73023813 72.61557007 92.20495605 C74.04757954 96.29829709 75.49327872 100.38636233 76.95214844 104.47021484 C77.43873428 105.84012825 77.43873428 105.84012825 77.93515015 107.23771667 C78.56482815 109.010161 79.19816082 110.78131234 79.83560181 112.55097961 C80.11850067 113.34973007 80.40139954 114.14848053 80.69287109 114.97143555 C80.94555756 115.6778569 81.19824402 116.38427826 81.45858765 117.11210632 C82 119 82 119 82 122 C82.66 122 83.32 122 84 122 C84.11006882 121.44892578 84.22013763 120.89785156 84.33354187 120.33007812 C85.47805697 114.86744335 87.01563333 109.72728954 88.95703125 104.5 C89.25246323 103.69050903 89.5478952 102.88101807 89.85227966 102.04699707 C90.83359607 99.36264307 91.82303244 96.681359 92.8125 94 C93.51121564 92.09327239 94.20944559 90.18636673 94.90722656 88.27929688 C97.26252568 81.84955684 99.6304174 75.42448752 102 69 C102.44623718 67.78989258 102.89247437 66.57978516 103.35223389 65.33300781 C104.52633277 62.14916689 105.70066507 58.96541211 106.8750515 55.78167725 C107.58846355 53.84749197 108.30173115 51.91325348 109.01496887 49.97900391 C109.48872577 48.69433105 109.96249589 47.40966308 110.4362793 46.125 C110.66992723 45.49145599 110.90357515 44.85791199 111.14430332 44.20516968 C112.75695935 39.83356091 114.37366704 35.4634628 115.99145508 31.09375 C116.85370568 28.76042675 117.7159302 26.42709387 118.578125 24.09375 C118.96608749 23.04844116 119.35404999 22.00313232 119.75376892 20.92614746 C122.31518782 13.98684081 124.65816144 7.02551567 127 0 C139.21 0 151.42 0 164 0 C160.55696371 9.75526949 157.14277437 19.41086778 153.3125 29 C152.34787923 31.43708048 151.38419558 33.87451203 150.421875 36.3125 C150.15927383 36.97725342 149.89667267 37.64200684 149.62611389 38.3269043 C145.73002254 48.20170385 141.89895757 58.10192008 138.0625 68 C137.66023193 69.03778595 137.25796387 70.0755719 136.84350586 71.14480591 C130.47928848 87.56778425 124.13708844 103.99922111 117.8125 120.4375 C117.39691833 121.5176236 116.98133667 122.59774719 116.55316162 123.71060181 C112.1580313 135.13779076 107.77665615 146.57002093 103.4296875 158.015625 C103.06705307 158.9699794 102.70441864 159.9243338 102.33079529 160.90760803 C100.64577732 165.34324276 98.96340019 169.77984229 97.28637695 174.21850586 C94.36103902 181.94458136 91.38166094 189.645458 88.265625 197.296875 C87.98820969 197.98464523 87.71079437 198.67241547 87.42497253 199.38102722 C81.96492006 212.64573507 73.33765688 224.03686769 60 230 C43.58638787 235.57508766 28.54284632 234.73640532 12 230 C11.01 229.34 10.02 228.68 9 228 C9.97571095 224.19066023 10.95437518 220.38209286 11.93579102 216.57421875 C12.43337438 214.64102868 12.92861119 212.70723512 13.42382812 210.7734375 C13.73642578 209.56171875 14.04902344 208.35 14.37109375 207.1015625 C14.65911865 205.98088379 14.94714355 204.86020508 15.24389648 203.70556641 C16 201 16 201 17 199 C18.19625 199.33 19.3925 199.66 20.625 200 C29.53445519 201.93928204 38.7350841 202.40744318 47.03515625 198.265625 C52.21779429 194.92730547 54.9090346 191.9681525 57.625 186.375 C58.19476562 185.22773437 58.76453125 184.08046875 59.3515625 182.8984375 C59.61557861 182.27372559 59.87959473 181.64901367 60.15161133 181.00537109 C61 179 61 179 62.10424805 176.92041016 C64.67575996 171.07057831 63.72954969 166.77958048 61.50390625 160.9765625 C60.57291727 158.66201936 59.60935875 156.36581518 58.62045288 154.07540894 C57.5323512 151.55516996 56.4816603 149.02190255 55.4387207 146.48266602 C53.99457084 142.97323646 52.53750075 139.46966358 51.06933594 135.97021484 C48.15672304 129.00508995 45.41270509 121.97756032 42.6875 114.9375 C42.14441921 113.54213521 41.60128607 112.14679079 41.05810547 110.75146484 C31.66924478 86.56840594 22.61177995 62.25462005 13.49589539 37.96766663 C12.98212938 36.59888618 12.4683609 35.23010667 11.95458984 33.86132812 C11.70574319 33.19831412 11.45689653 32.53530012 11.20050907 31.85219479 C9.54333159 27.43949586 7.87658878 23.03052206 6.20556641 18.62304688 C5.78072464 17.49940735 5.35588287 16.37576782 4.91816711 15.21807861 C4.13270935 13.14119185 3.34476367 11.06524364 2.55387878 8.99041748 C2.21359146 8.0889801 1.87330414 7.18754272 1.52270508 6.25878906 C1.22640701 5.47860413 0.93010895 4.69841919 0.62483215 3.89459229 C0 2 0 2 0 0 Z " fill="#EA4901" transform="translate(1087,615)"/>
<path d="M0 0 C11.55 0 23.1 0 35 0 C35.029729 4.48726685 35.029729 4.48726685 35.06005859 9.06518555 C35.12719074 18.98777568 35.20482608 28.91026406 35.28752708 38.83273602 C35.33731309 44.84427809 35.38364379 50.85580409 35.421875 56.86743164 C35.45895244 62.67711282 35.50537129 68.48665336 35.55806351 74.29621315 C35.5764888 76.50435716 35.59163972 78.71253119 35.60334396 80.92072105 C34.93199455 105.84487488 34.93199455 105.84487488 44.671875 127.9765625 C53.9085571 136.27322828 64.17199387 136.55320131 75.97802734 136.13183594 C85.49361549 135.51140396 93.73567123 130.68845611 100.25 123.875 C108.31967075 113.72066431 110.28800049 100.44092302 110.31884766 87.86865234 C110.32889328 86.91134216 110.3389389 85.95403198 110.34928894 84.9677124 C110.37988985 81.84045956 110.3970913 78.71329139 110.4140625 75.5859375 C110.43279276 73.40303836 110.45236753 71.22014632 110.4727478 69.03726196 C110.52387872 63.31964317 110.56360596 57.60200095 110.60089111 51.88427734 C110.64105063 46.03867895 110.69208825 40.19317641 110.7421875 34.34765625 C110.83872119 22.89849843 110.92219106 11.4493004 111 0 C123.21 0 135.42 0 148 0 C148 54.78 148 109.56 148 166 C135.79 166 123.58 166 111 166 C111 157.09 111 148.18 111 139 C110.34 139 109.68 139 109 139 C108.89816406 139.57105469 108.79632812 140.14210938 108.69140625 140.73046875 C105.73280766 150.44202684 95.21447077 157.9122973 86.875 162.75 C71.12502152 170.79677431 52.42640197 171.27685295 35.625 166.2578125 C22.29747495 161.63339109 12.30403771 153.68518904 6 141 C1.01696191 130.4418797 -0.30318295 120.35612404 -0.22705078 108.75732422 C-0.22734283 107.57568192 -0.22763489 106.39403961 -0.22793579 105.17658997 C-0.22655152 101.30254565 -0.21103284 97.42869788 -0.1953125 93.5546875 C-0.19046179 90.85613106 -0.18863521 88.15757481 -0.18673706 85.45901489 C-0.18054596 79.10214841 -0.16416758 72.74535155 -0.14403808 66.38851559 C-0.12160487 59.14538418 -0.11066707 51.90224927 -0.10064721 44.65909171 C-0.07979895 29.77268277 -0.04315273 14.88636413 0 0 Z " fill="#EA4800" transform="translate(913,615)"/>
<path d="M0 0 C11.55 0 23.1 0 35 0 C35 13.53 35 27.06 35 41 C50.18 41 65.36 41 81 41 C81 50.9 81 60.8 81 71 C66.15 71 51.3 71 36 71 C36.12028956 84.52158804 36.12028956 84.52158804 36.2578125 98.04296875 C36.31781999 103.56816131 36.37592913 109.09332262 36.421875 114.61865234 C36.45909972 119.07971982 36.50555327 123.54060927 36.55806351 128.00152206 C36.57641214 129.6924816 36.59158978 131.38347899 36.60334396 133.07449722 C36.02264376 155.32383201 36.02264376 155.32383201 45.375 174.4375 C53.49284647 179.26955147 63.24293931 179.17311131 72.31640625 177.32421875 C74.16437839 176.80501486 76.00381458 176.25329705 77.828125 175.65625 C80 175 80 175 83 175 C83.33794471 178.02038089 83.67048433 181.04119756 84 184.0625 C84.09539062 184.91005859 84.19078125 185.75761719 84.2890625 186.63085938 C84.81056158 191.45472589 85.10532727 196.14836264 85 201 C83.25525701 201.78265953 81.50377059 202.55028432 79.75 203.3125 C78.28820313 203.95638672 78.28820313 203.95638672 76.796875 204.61328125 C67.31990577 208.2900141 58.11487297 209.50357102 48 209.4375 C46.91460938 209.45748047 45.82921875 209.47746094 44.7109375 209.49804688 C32.84212354 209.49096524 21.77977444 206.15882313 12.91015625 198.1015625 C4.78628936 189.72051546 1.89116462 180.79496815 0.87939453 169.39575195 C0.79559603 168.47697675 0.71179752 167.55820154 0.62545967 166.61158466 C-0.20927306 156.71048989 -0.25362221 146.847087 -0.1953125 136.91796875 C-0.19156739 134.99742279 -0.18872754 133.07687488 -0.18673706 131.15632629 C-0.17921826 126.18021057 -0.15967581 121.20421767 -0.1373291 116.22814941 C-0.11661238 111.11891337 -0.10768101 106.00965685 -0.09765625 100.90039062 C-0.0764147 90.93353199 -0.04133357 80.96679557 0 71 C-7.59 71 -15.18 71 -23 71 C-23.65338319 60.95423343 -24.11571485 51.0671917 -24 41 C-16.08 41 -8.16 41 0 41 C0 27.47 0 13.94 0 0 Z " fill="#EA4800" transform="translate(1333,315)"/>
<path d="M0 0 C9.16119835 7.47540163 12.97019856 16.86349303 14.7890625 28.40234375 C15.8355855 38.90339603 14.1858927 48.92611727 12.7890625 59.40234375 C2.2290625 59.40234375 -8.3309375 59.40234375 -19.2109375 59.40234375 C-19.5409375 55.11234375 -19.8709375 50.82234375 -20.2109375 46.40234375 C-21.72611119 39.39837908 -23.9066718 33.32773333 -29.2109375 28.40234375 C-37.33270182 23.39104236 -47.41784856 23.23303514 -56.59765625 25.0859375 C-65.78396128 27.65724936 -72.26129376 30.94846608 -77.4609375 39.08984375 C-83.23577953 49.52232404 -85.34116177 59.37390552 -85.41625977 71.17138672 C-85.42615936 72.13786636 -85.43605896 73.10434601 -85.44625854 74.10011292 C-85.47774209 77.28156112 -85.50257886 80.46302424 -85.52734375 83.64453125 C-85.54792463 85.85556416 -85.5689214 88.06659323 -85.59031677 90.27761841 C-85.64542028 96.08737069 -85.69488114 101.89715778 -85.74316406 107.70697021 C-85.7934648 113.63931362 -85.84910607 119.57160668 -85.90429688 125.50390625 C-86.01173505 137.13667727 -86.112718 148.76949124 -86.2109375 160.40234375 C-98.0909375 160.40234375 -109.9709375 160.40234375 -122.2109375 160.40234375 C-122.2109375 105.29234375 -122.2109375 50.18234375 -122.2109375 -6.59765625 C-111.6509375 -6.59765625 -101.0909375 -6.59765625 -90.2109375 -6.59765625 C-89.2734375 3.65234375 -89.2734375 3.65234375 -88.98461914 6.86425781 C-88.90590576 7.70698242 -88.82719238 8.54970703 -88.74609375 9.41796875 C-88.6675415 10.27680664 -88.58898926 11.13564453 -88.50805664 12.02050781 C-88.23383847 14.21875964 -87.80026784 16.2695292 -87.2109375 18.40234375 C-86.48390625 17.33306641 -86.48390625 17.33306641 -85.7421875 16.2421875 C-76.54377064 3.09906494 -65.56990653 -5.00827165 -49.7734375 -8.53515625 C-32.76535602 -11.36690508 -14.36009408 -10.3768171 0 0 Z " fill="#EA4900" transform="translate(827.2109375,360.59765625)"/>
<path d="M0 0 C10.60532141 8.76649552 15.80734756 19.72284906 17.8125 33.3125 C18.14069939 38.14845456 18.19416794 42.96642502 18.1875 47.8125 C18.18695618 48.47657867 18.18641235 49.14065735 18.18585205 49.82485962 C18.12177859 66.83943784 16.04109132 82.79203752 3.9375 95.75 C-4.7166608 103.81073263 -14.74811045 105.76025518 -26.33984375 105.5546875 C-37.46720754 104.85428491 -47.55847516 101.4629279 -55.25390625 93.0546875 C-65.06151105 79.87902835 -67.54728385 65.42313899 -67.5 49.375 C-67.51611328 48.28509766 -67.53222656 47.19519531 -67.54882812 46.07226562 C-67.55833238 30.0766003 -62.63493384 16.06564894 -51.47265625 4.4375 C-38.31269461 -7.80013954 -15.05273801 -10.50257576 0 0 Z " fill="#FEFEFD" transform="translate(1048.1875,386.6875)"/>
<path d="M0 0 C14.6334375 -0.0928125 14.6334375 -0.0928125 29.5625 -0.1875 C32.61056885 -0.21481201 35.6586377 -0.24212402 38.79907227 -0.27026367 C41.26317959 -0.27904005 43.72729132 -0.28668125 46.19140625 -0.29296875 C48.05194641 -0.3159906 48.05194641 -0.3159906 49.95007324 -0.33947754 C64.19906451 -0.3436549 77.71952907 1.46416094 88.8125 11.0625 C94.24700707 16.88879712 96.16935439 24.75275918 96.4375 32.5625 C96.01336415 42.07135208 93.44510241 50.82790122 87 58 C74.7998256 68.15570073 61.09235932 69.32157004 45.80078125 69.1953125 C44.63236694 69.19329834 43.46395264 69.19128418 42.26013184 69.18920898 C37.94421395 69.17883721 33.62835254 69.15091553 29.3125 69.125 C19.639375 69.08375 9.96625 69.0425 0 69 C0 46.23 0 23.46 0 0 Z " fill="#FEFEFD" transform="translate(523,420)"/>
<path d="M0 0 C11.88 0 23.76 0 36 0 C36 55.11 36 110.22 36 167 C24.12 167 12.24 167 0 167 C0 111.89 0 56.78 0 0 Z " fill="#EA4700" transform="translate(876,354)"/>
<path d="M0 0 C10.333125 -0.061875 20.66625 -0.12375 31.3125 -0.1875 C34.55360596 -0.21481201 37.79471191 -0.24212402 41.1340332 -0.27026367 C43.73127877 -0.27903361 46.3285285 -0.28667635 48.92578125 -0.29296875 C49.58539352 -0.30080887 50.2450058 -0.30864899 50.92460632 -0.31672668 C63.4278302 -0.45767758 77.03448877 0.97556182 86.8515625 9.6328125 C92.82747449 16.19748429 94.54652817 22.63437651 94.4375 31.3125 C94.42992676 32.15337158 94.42235352 32.99424316 94.41455078 33.8605957 C94.24500204 40.25332593 93.34544648 45.45222197 90 51 C89.59910156 51.71285156 89.19820312 52.42570313 88.78515625 53.16015625 C83.0244054 62.09349453 73.52476293 65.22470305 63.57754517 67.40664673 C57.58165191 68.4010948 51.66915447 68.36869277 45.60546875 68.29296875 C44.4390686 68.28994751 43.27266846 68.28692627 42.07092285 68.28381348 C37.7763566 68.2682955 33.48191798 68.22641389 29.1875 68.1875 C19.555625 68.125625 9.92375 68.06375 0 68 C0 45.56 0 23.12 0 0 Z " fill="#FEFEFE" transform="translate(744,681)"/>
<path d="M0 0 C4.77662968 2.66388963 8.13156525 5.74137964 10.25 10.8125 C11.03536619 16.42225849 10.51205144 21.07726403 7.25 25.8125 C1.88418801 31.55267097 -4.71863126 34.4322207 -11.68359375 37.8125 C-26.88397426 45.21590436 -39.57653747 55.23116583 -51.75 66.8125 C-52.43449219 67.43253906 -53.11898437 68.05257812 -53.82421875 68.69140625 C-64.10902752 78.3293717 -72.41811888 90.39797721 -79.06640625 102.76171875 C-82.58988112 109.14648411 -85.77518279 114.0843186 -92.625 117.0625 C-97.70125165 118.2808004 -101.75522469 118.59620086 -106.4375 116.125 C-111.1341289 113.13432151 -114.27793963 109.21005468 -115.75 103.8125 C-116.36816004 97.36367414 -115.38241775 92.5641801 -112.5 86.8125 C-111.97079956 85.72835815 -111.97079956 85.72835815 -111.4309082 84.62231445 C-105.14952129 72.23755565 -96.71256776 61.31517475 -87.125 51.328125 C-84.72456198 48.85686321 -84.72456198 48.85686321 -82.66015625 46.18359375 C-80.9444015 44.05381229 -79.27333857 42.3774648 -77.1875 40.625 C-74.86423708 38.65065202 -72.59323959 36.66350001 -70.3828125 34.5625 C-54.82897445 19.81235571 -22.92890006 -7.26081835 0 0 Z " fill="#F04B01" transform="translate(243.75,672.1875)"/>
<path d="M0 0 C18.62747473 10.40608928 26.64164942 32.6998882 32.17456055 52.13183594 C51.37981825 122.01550938 51.37981825 122.01550938 41.34375 139.7890625 C38.15518646 143.82911744 34.34005936 146.35279271 29.46875 147.9765625 C23.0781548 148.51813836 18.79890269 147.613877 13.46875 143.9765625 C4.59092523 136.08516271 4.88761007 122.29404363 3.81964111 111.1708374 C0.98922935 82.11036274 -2.21158015 50.02043627 -21.3671875 26.5625 C-24.62531307 22.12357724 -24.05726701 16.20020362 -23.53125 10.9765625 C-21.88955998 6.09610357 -18.78201303 2.81040452 -14.53125 -0.0234375 C-9.50626453 -1.69843266 -4.98877639 -2.017067 0 0 Z " fill="#F24C01" transform="translate(343.53125,32.0234375)"/>
<path d="M0 0 C1.18408447 0.36158203 1.18408447 0.36158203 2.39208984 0.73046875 C26.93459555 8.47911536 50.54051318 22.19407957 70 39 C70.86109375 39.73992187 71.7221875 40.47984375 72.609375 41.2421875 C87.27612618 54.12983572 87.27612618 54.12983572 88.25 62.02734375 C88.56583998 67.80129336 87.55490319 72.36754825 84 77 C80.03600636 80.84274207 76.04518811 82.34195243 70.5625 82.6875 C62.73924352 82.29796026 57.9626588 78.0287234 52.69140625 72.64453125 C49.24927283 69.16704917 45.61411933 66.16170706 41.6875 63.25 C41.00163818 62.74049805 40.31577637 62.23099609 39.60913086 61.70605469 C17.33220859 45.42879545 -7.70520869 32.38585554 -35.6875 30.625 C-42.38183804 30.06156784 -47.46879362 28.0555056 -51.9375 22.9375 C-55.35581947 18.06898439 -55.54427767 13.76934328 -55 8 C-53.09035681 2.77360812 -49.95040399 -1.24737196 -45.11889648 -4.11743164 C-32.02233118 -9.57244761 -12.87432014 -3.95438093 0 0 Z " fill="#F04B01" transform="translate(111,266)"/>
<path d="M0 0 C5.30034907 3.7513405 7.94583369 7.55619043 9.6875 13.8125 C9.8913682 16.27536493 9.99463873 18.7476295 10.0234375 21.21875 C10.03593788 22.28258156 10.03593788 22.28258156 10.0486908 23.36790466 C10.06818302 25.68298691 10.06811952 27.99734836 10.0625 30.3125 C10.06228851 31.10850616 10.06207703 31.90451233 10.06185913 32.72463989 C9.97179333 66.87579901 3.16167989 100.30419708 -10.375 131.6875 C-10.67897705 132.40639404 -10.9829541 133.12528809 -11.29614258 133.8659668 C-13.85938133 139.57533628 -17.16510579 144.82958672 -22.55078125 148.22265625 C-28.24835218 150.01454767 -32.75233533 150.19687718 -38.3125 147.8125 C-43.25524391 144.87175895 -45.99169687 141.42386692 -47.90234375 136.03515625 C-49.33848447 128.25264129 -46.98251156 122.55513797 -44.125 115.4375 C-33.27866363 87.39539084 -28.10744963 59.12192902 -27.85620117 29.06347656 C-27.74971094 18.31147379 -27.56435593 9.51375856 -19.83984375 1.22265625 C-14.3654447 -3.83171218 -6.17746842 -3.66499059 0 0 Z " fill="#F24C01" transform="translate(518.3125,12.1875)"/>
<path d="M0 0 C0.69975952 -0.00067474 1.39951904 -0.00134949 2.1204834 -0.00204468 C27.535419 0.03658972 61.98446093 2.49841823 82.75 19.25 C87.3774084 24.23336289 88.05682766 28.15275718 87.9609375 34.75 C87.54072159 39.73033673 85.44352156 42.8267542 81.8125 46.0625 C76.87152743 49.59176612 71.74341115 50.12386738 65.75 49.25 C63.31388669 48.40879285 60.94762065 47.52809733 58.5625 46.5625 C51.92669782 43.87958276 45.29614256 42.00384217 38.3125 40.4375 C37.40153564 40.2310083 36.49057129 40.0245166 35.55200195 39.81176758 C24.74769447 37.46223281 14.22622922 37.0362522 3.19677734 37.00976562 C0.78316808 37.00013238 -1.62956093 36.96906716 -4.04296875 36.9375 C-17.59997413 36.84578275 -30.23862262 38.54176465 -43.1875 42.67578125 C-48.58022996 44.1771663 -53.32265999 43.37314679 -58.390625 41.30078125 C-61.5756725 39.50082794 -63.16737126 37.25143554 -65.25 34.25 C-65.683125 33.63125 -66.11625 33.0125 -66.5625 32.375 C-68.17506211 27.3907171 -67.79916011 22.85801582 -65.75 18.125 C-61.32120095 10.30947226 -54.22939477 7.44887441 -45.8828125 5.125 C-30.60634514 1.44550679 -15.71732498 0.01374462 0 0 Z " fill="#EF4B01" transform="translate(83.25,418.75)"/>
<path d="M0 0 C0.69572113 -0.01053406 1.39144226 -0.02106812 2.10824585 -0.03192139 C10.15907059 -0.12641994 16.39217586 -0.04662992 23.1875 4.5 C27.38388968 8.63127787 29.34726186 11.86556221 29.5 17.75 C29.44677779 22.83937369 28.68551724 25.62381874 25.1875 29.5 C20.54503732 33.6895395 17.26215397 34.59809766 11.10546875 34.859375 C-25.74088367 36.67963255 -60.27185214 46.04225038 -88.8125 70.5 C-94.46285423 75.23874185 -98.44762881 75.91424815 -105.7265625 75.84375 C-110.37190959 75.32629362 -113.43457689 73.68320574 -116.8125 70.5 C-120.68063674 65.42307053 -120.56741525 59.62919287 -119.8125 53.5 C-115.25714816 41.13547358 -100.54300836 33.16359259 -89.8125 26.5 C-89.24160645 26.14164063 -88.67071289 25.78328125 -88.08251953 25.4140625 C-72.60016973 15.79466385 -55.36904701 9.22580602 -37.8125 4.5 C-37.03310059 4.28827148 -36.25370117 4.07654297 -35.45068359 3.85839844 C-23.71706859 0.81590365 -12.06906227 0.09413578 0 0 Z " fill="#EF4A01" transform="translate(160.8125,558.5)"/>
<path d="M0 0 C4.6328945 2.48692172 8.07226028 5.79740253 9.80078125 10.8046875 C9.98769531 11.74570312 10.17460938 12.68671875 10.3671875 13.65625 C10.60824219 14.79707031 10.84929688 15.93789063 11.09765625 17.11328125 C11.37669171 18.50226539 11.65386279 19.89162471 11.9296875 21.28125 C16.09242756 42.23249467 21.68573515 61.46441474 31.9296875 80.28125 C32.25582031 80.89194336 32.58195313 81.50263672 32.91796875 82.13183594 C39.17806166 93.81027621 46.96833628 104.03628395 55.3984375 114.22265625 C58.76112407 118.74341089 58.38469766 123.88853695 57.9296875 129.28125 C55.88491777 135.30196087 52.12918548 138.11384814 46.9921875 141.59375 C41.85260409 143.30694447 37.79393328 142.47190821 32.9921875 140.28125 C7.62525366 126.50734927 -8.32270865 87.97721943 -16.5 61.7890625 C-28.56549493 20.94403119 -28.56549493 20.94403119 -22.3828125 7.65625 C-17.56331485 -0.32497483 -8.77507513 -3.04644118 0 0 Z " fill="#EF4B01" transform="translate(607.0703125,762.71875)"/>
<path d="M0 0 C16.09619519 8.49056359 31.02664673 21.42425654 42.62890625 35.38671875 C43.36496094 36.23492187 44.10101563 37.083125 44.859375 37.95703125 C81.97047745 81.2631508 81.97047745 81.2631508 80.62890625 101.38671875 C79.2479098 107.93694962 76.11802515 111.67851398 70.62890625 115.38671875 C66.5906776 117.60774451 63.2037923 117.8519614 58.62890625 117.38671875 C48.98060536 114.26410974 44.36593154 106.46107376 39.87890625 97.88671875 C32.65355816 84.51900123 24.18257851 72.1937612 14.62890625 60.38671875 C13.92378906 59.51402344 13.21867187 58.64132813 12.4921875 57.7421875 C4.5287473 48.39508117 -5.02935108 41.00866017 -15.80859375 35.19921875 C-22.33306753 31.63641621 -27.94669724 27.65990827 -30.37109375 20.38671875 C-31.0655824 13.23690121 -30.83303476 8.14027427 -26.37109375 2.38671875 C-18.07723503 -4.04525332 -9.42682803 -4.20445382 0 0 Z " fill="#F14B01" transform="translate(196.37109375,127.61328125)"/>
<path d="M0 0 C4.51846921 3.04505534 8.13526194 6.71828583 9.875 11.9375 C10.27377569 18.15175444 9.2132337 22.69291721 7.125 28.5 C-3.44549794 60.49065535 -2.60607035 94.84171079 5.30078125 127.34765625 C6.70452954 133.67884751 6.14532489 139.32798439 2.875 144.9375 C-0.39956605 148.43946647 -3.82585072 151.72754775 -8.734375 152.17578125 C-15.07719718 152.32567381 -19.1904211 152.37862101 -24.125 147.9375 C-24.79402344 147.339375 -25.46304687 146.74125 -26.15234375 146.125 C-40.78266536 129.90127702 -37.98939019 89.35736349 -36.984375 69.10351562 C-35.96231719 52.41377617 -33.34192836 36.115148 -28.1875 20.1875 C-27.95901367 19.47303711 -27.73052734 18.75857422 -27.49511719 18.02246094 C-24.85041083 10.31388766 -21.47850982 3.93397273 -14.125 -0.0625 C-9.19058151 -1.70730616 -4.86089501 -1.6527043 0 0 Z " fill="#F04B01" transform="translate(478.125,783.0625)"/>
<path d="M0 0 C4.45146251 2.18526342 7.18885145 4.9394521 10 9 C15.35797594 25.07392782 3.165064 44.93341477 -3.7890625 58.8671875 C-13.46206351 77.68067706 -25.86855447 95.3204624 -40.58496094 110.53369141 C-42.08353037 112.08655683 -43.56053085 113.65853145 -45.0390625 115.23046875 C-58.26456648 129.10668175 -58.26456648 129.10668175 -68.6875 129.5 C-74.90288895 129.17059305 -78.40508882 127.66740714 -82.75 123.125 C-86.49547261 117.92295471 -87.95439195 113.45587113 -87 107 C-84.80012505 100.61979587 -80.95396374 96.63391915 -75.9375 92.3125 C-68.93023521 86.01291133 -62.79684492 79.41883841 -57 72 C-56.32807617 71.14849365 -56.32807617 71.14849365 -55.64257812 70.27978516 C-43.99688104 55.39228941 -35.19027267 39.38361992 -28.0703125 21.90234375 C-22.32476384 8.00619808 -16.67363367 -1.96018045 0 0 Z " fill="#F14B01" transform="translate(684,54)"/>
<path d="M0 0 C8.600625 -0.061875 17.20125 -0.12375 26.0625 -0.1875 C30.08642944 -0.22846802 30.08642944 -0.22846802 34.19165039 -0.27026367 C67.62678076 -0.47120017 67.62678076 -0.47120017 80.875 11.625 C86.2162669 20.1081886 87.36058401 30.57373882 85.30859375 40.265625 C83.06326265 48.49537415 80.6293639 53.96550842 73.4375 58.6796875 C58.40087428 67.0378119 40.76068046 65.24699571 24.125 65.125 C16.16375 65.08375 8.2025 65.0425 0 65 C0 43.55 0 22.1 0 0 Z " fill="#FEFDFC" transform="translate(523,326)"/>
<path d="M0 0 C4.43393375 2.5536174 7.06760659 5.07909641 8.609375 10.08984375 C9.48992353 16.8574882 8.31696425 23.13864602 4.41552734 28.83203125 C3.01815634 30.55846553 1.57359087 32.23229562 0.109375 33.90234375 C-20.18732133 58.26581858 -29.95061664 88.5497031 -34.47924805 119.49780273 C-35.53349039 126.17911719 -36.75275231 131.94749782 -41.390625 137.08984375 C-46.57030296 140.8400376 -51.07618416 141.80276449 -57.390625 141.08984375 C-62.54706545 139.26992359 -65.25795771 136.52778907 -68.390625 132.08984375 C-73.08380193 120.34872516 -69.99943559 107.04384259 -67.390625 95.08984375 C-67.2349707 94.36200684 -67.07931641 93.63416992 -66.91894531 92.88427734 C-60.48612537 63.69262835 -46.95238788 36.24806098 -28.765625 12.65234375 C-28.32226807 12.07250732 -27.87891113 11.4926709 -27.42211914 10.89526367 C-20.40940836 1.99227144 -11.74877033 -4.47297955 0 0 Z " fill="#F04B01" transform="translate(343.390625,752.91015625)"/>
<path d="M0 0 C8.3325 -0.04125 16.665 -0.0825 25.25 -0.125 C27.85551758 -0.14320801 30.46103516 -0.16141602 33.14550781 -0.18017578 C35.24804479 -0.18602582 37.35058406 -0.19112016 39.453125 -0.1953125 C40.51450684 -0.20554443 41.57588867 -0.21577637 42.66943359 -0.22631836 C55.68197222 -0.22930152 68.53699938 1.18492519 78.49609375 10.2890625 C85.52234227 18.28256082 85.5820254 27.86397269 85 38 C83.854066 45.60101175 80.58262666 51.70017057 75 57 C65.10415019 63.70627839 54.46068945 64.29726787 42.87109375 64.1953125 C41.7792981 64.19329834 40.68750244 64.19128418 39.56262207 64.18920898 C35.5208714 64.17881924 31.47918106 64.15089719 27.4375 64.125 C18.383125 64.08375 9.32875 64.0425 0 64 C0 42.88 0 21.76 0 0 Z " fill="#FEFEFD" transform="translate(744,587)"/>
<path d="M0 0 C5.01928915 3.28221203 8.20796266 7.65655213 10.04296875 13.3359375 C10.78497651 20.07440333 10.93619577 26.73729451 7.37109375 32.6875 C3.37472525 37.64769855 -1.70343605 40.27600611 -7.95703125 41.3359375 C-16.61448705 41.32215174 -22.48787776 39.10397561 -28.66015625 33.03125 C-33.414084 26.81677818 -32.72699696 18.73703648 -31.95703125 11.3359375 C-29.73008903 5.17043632 -25.38348986 1.29391385 -19.76953125 -1.9140625 C-12.82431992 -3.76611886 -6.43259028 -3.21060258 0 0 Z " fill="#EB4801" transform="translate(904.95703125,288.6640625)"/>
<path d="M0 0 C0.33 0 0.66 0 1 0 C1.66 6.27 2.32 12.54 3 19 C9.27 19.33 15.54 19.66 22 20 C22 20.33 22 20.66 22 21 C14.74 21 7.48 21 0 21 C0 14.07 0 7.14 0 0 Z " fill="#EA2C01" transform="translate(1310,365)"/>
<path d="M0 0 C4.16446295 3.42080885 6.46633604 7.89092312 8 13 C7.67 13.99 7.34 14.98 7 16 C4.36 13.69 1.72 11.38 -1 9 C0.32 8.67 1.64 8.34 3 8 C2.505 7.05125 2.01 6.1025 1.5 5.125 C0 2 0 2 0 0 Z " fill="#EA3A09" transform="translate(669,285)"/>
<path d="M0 0 C0 3.69942045 -0.85819127 4.40155392 -3.25 7.125 C-3.85328125 7.82882812 -4.4565625 8.53265625 -5.078125 9.2578125 C-7.10469267 11.09490433 -8.32969429 11.6100881 -11 12 C-7.49102731 7.81576108 -3.91939465 3.80411834 0 0 Z " fill="#ED3700" transform="translate(301,268)"/>
<path d="M0 0 C0.66 0.33 1.32 0.66 2 1 C-1.82180842 5.4008703 -4.47371099 6.80805531 -10 8 C-6.97727468 4.74475735 -3.74281699 2.38179263 0 0 Z " fill="#EB3802" transform="translate(651,660)"/>
<path d="M0 0 C0.99 0.33 1.98 0.66 3 1 C3 1.99 3 2.98 3 4 C2.01 4.33 1.02 4.66 0 5 C-1.20882096 7.00016466 -1.20882096 7.00016466 -2 9 C-2.66 8.67 -3.32 8.34 -4 8 C-2.68 5.36 -1.36 2.72 0 0 Z " fill="#E83B09" transform="translate(965,541)"/>
<path d="M0 0 C0 0.99 0 1.98 0 3 C-4.22857143 7 -4.22857143 7 -8 7 C-8 6.34 -8 5.68 -8 5 C-6.25 3.7109375 -6.25 3.7109375 -4 2.375 C-3.2575 1.92898438 -2.515 1.48296875 -1.75 1.0234375 C-1.1725 0.68570313 -0.595 0.34796875 0 0 Z " fill="#F03F06" transform="translate(198,688)"/>
<path d="M0 0 C0.33 0.99 0.66 1.98 1 3 C-1.31 4.65 -3.62 6.3 -6 8 C-4.85240511 3.40962044 -3.70960782 2.66330818 0 0 Z " fill="#F0450D" transform="translate(26,428)"/>
<path d="M0 0 C0.66 0 1.32 0 2 0 C0.34832443 3.5786304 -1.78286492 6.74820188 -4 10 C-4.33 9.01 -4.66 8.02 -5 7 C-4.07421875 5.17578125 -4.07421875 5.17578125 -2.6875 3.3125 C-2.23761719 2.68988281 -1.78773438 2.06726562 -1.32421875 1.42578125 C-0.88722656 0.95527344 -0.45023438 0.48476563 0 0 Z " fill="#EF3A04" transform="translate(665,59)"/>
<path d="M0 0 C0.66 0.33 1.32 0.66 2 1 C-1.465 3.97 -1.465 3.97 -5 7 C-5.66 6.67 -6.32 6.34 -7 6 C-4.69 4.02 -2.38 2.04 0 0 Z " fill="#EF3C05" transform="translate(177,704)"/>
<path d="M0 0 C1.98 0 3.96 0 6 0 C2.79663178 2.83374881 0.21912747 3.5205537 -4 4 C-2.68 3.34 -1.36 2.68 0 2 C0 1.34 0 0.68 0 0 Z " fill="#EA3A08" transform="translate(1145,842)"/>
</svg>
