<?xml version="1.0" encoding="UTF-8"?>
<svg version="1.1" xmlns="http://www.w3.org/2000/svg" width="2000" height="1189">
<path d="M0 0 C22.01395538 -0.19940177 43.99713468 0.38029383 66 1 C86.51545104 63.50985352 86.51545104 63.50985352 94.67114258 88.64477539 C97.88115682 98.53080334 101.12080587 108.40668652 104.382967 118.27562904 C105.70629697 122.28110507 107.02658547 126.28758507 108.34698391 130.29402828 C109.64103789 134.21910651 110.94028831 138.14241527 112.24336815 142.06450558 C113.24632208 145.08834538 114.24164284 148.11469888 115.23828125 151.140625 C115.60423401 152.23653458 115.97018677 153.33244415 116.347229 154.46156311 C116.68292908 155.48519455 117.01862915 156.50882599 117.36450195 157.56347656 C117.65758743 158.44859924 117.95067291 159.33372192 118.25263977 160.2456665 C119.11765196 163.43359643 119.5328567 166.72999688 120 170 C309.42 170 498.84 170 694 170 C691.75026734 180.12379699 691.75026734 180.12379699 690.40625 183.65039062 C690.10340591 184.45451385 689.80056183 185.25863708 689.48854065 186.08712769 C689.16232224 186.93493805 688.83610382 187.78274841 688.5 188.65625 C687.97870766 190.03443405 687.97870766 190.03443405 687.44688416 191.44046021 C686.69608298 193.4239526 685.94261412 195.40643688 685.18673706 197.38800049 C683.13360252 202.77196791 681.10140951 208.16384681 679.06640625 213.5546875 C678.64516983 214.66903168 678.22393341 215.78337585 677.78993225 216.93148804 C673.43335179 228.46950408 669.17796416 240.04390821 664.9375 251.625 C663.43775489 255.71754135 661.93761102 259.80993651 660.4375 263.90234375 C660.06862167 264.90894547 659.69974335 265.91554718 659.31968689 266.95265198 C655.37809123 277.70467455 651.40989906 288.44682682 647.4375 299.1875 C647.08755981 300.13377258 646.73761963 301.08004517 646.3770752 302.05499268 C644.96763535 305.86613034 643.55807593 309.67722373 642.14825439 313.48822021 C639.71695941 320.06054136 637.28756556 326.63356256 634.859375 333.20703125 C630.9703312 343.73505845 627.07955459 354.26244389 623.18719482 364.78924561 C622.36444252 367.0143695 621.54173217 369.23950891 620.71905518 371.46466064 C618.00754033 378.79846271 615.29498085 386.13187719 612.58120728 393.46484375 C611.70443485 395.83436639 610.82794255 398.20399271 609.95175171 400.57373047 C609.12047925 402.82183664 608.28881125 405.0697966 607.45671082 407.31759644 C606.67425359 409.43130051 605.89266125 411.54532499 605.11201477 413.65969849 C603.5639246 417.84155859 602.01081735 422.01733871 600.34960938 426.15576172 C598.05704775 431.86994696 596.36284587 436.83162014 596 443 C572.21791167 450.86866714 548.22192634 458.04119354 524.24636841 465.29199219 C508.2749225 470.12314788 492.31314959 474.98611376 476.35065842 479.84675598 C472.46503523 481.02987622 468.57931774 482.21268663 464.69360352 483.39550781 C457.46232792 485.59676079 450.23113256 487.79827718 443 490 C450.66998595 493.19783113 458.45747282 495.91124503 466.34765625 498.51171875 C467.59953232 498.92541214 468.85140839 499.33910553 470.14122009 499.76533508 C472.77344672 500.63415715 475.40659574 501.50011909 478.0402832 502.36450195 C481.39370098 503.46576415 484.7433078 504.57817391 488.09215641 505.69324017 C491.32059514 506.7655454 494.55313303 507.82526729 497.78515625 508.88671875 C498.97601334 509.28461105 500.16687042 509.68250336 501.39381409 510.092453 C509.57590258 512.75690937 516.98837546 514.26343874 525.6015625 513.95703125 C547.76386293 513.40343051 566.11820138 517.72326203 583 533 C583.76957031 533.67675781 584.53914063 534.35351562 585.33203125 535.05078125 C599.52101159 548.27288048 606.91751987 566.8749352 608.28515625 585.984375 C608.99873201 606.76410613 602.44943066 625.31683523 589 641 C588.38640625 641.72574219 587.7728125 642.45148437 587.140625 643.19921875 C574.38507868 657.07223815 555.07349259 665.23006468 536.484375 666.3203125 C514.71196735 667.09677966 494.96801617 660.632785 478.83203125 645.7734375 C463.44081012 630.70065542 455.51572599 611.64493051 454.96875 590.12890625 C454.90978472 574.24144827 459.64224415 560.28513962 468 547 C447.58186903 540.14954385 427.13965767 533.37143915 406.67947388 526.64764404 C404.239918 525.84529726 401.80084509 525.0414804 399.36227417 524.23614502 C395.88870491 523.08945846 392.41333697 521.94838517 388.9375 520.80859375 C387.39697716 520.29828362 387.39697716 520.29828362 385.82533264 519.77766418 C383.85467384 519.13397225 381.87803236 518.50828177 379.89558411 517.90187073 C377.97071351 517.30234249 376.06193527 516.64838718 374.17411804 515.94078064 C364.79926389 512.82850117 357.36480897 515.48275817 348.39453125 518.44921875 C346.81985897 518.94474659 345.24429157 519.43743789 343.66789246 519.92744446 C339.54446383 521.21688386 335.4333932 522.54191756 331.32415771 523.87579346 C326.33947864 525.48672021 321.34157413 527.05601082 316.34535503 528.6306963 C312.45647961 529.85710662 308.5699268 531.0895827 304.68940735 532.34220886 C297.84535715 534.5435194 291.06747691 536.62094391 284 538 C284.51949219 538.78761719 285.03898437 539.57523438 285.57421875 540.38671875 C298.01688374 559.82119549 302.45968824 580.2492791 298 603 C293.61012993 622.14987814 281.50557474 638.74988002 265.359375 649.80859375 C247.72728903 660.76971671 226.15561047 664.76099735 205.84375 660.09375 C187.16934185 655.34605486 171.18435868 644.82599098 160 629 C159.46761719 628.26652344 158.93523437 627.53304687 158.38671875 626.77734375 C147.3042314 610.08202043 144.36255109 588.05228286 148.1875 568.625 C152.98537942 549.27727231 164.28977198 532.11787171 181 521 C190.63779743 515.34661535 200.7579112 510.28757475 212.08251953 509.77124023 C227.99659511 508.95846176 242.61273703 504.38795621 257.67553711 499.57684326 C261.07095138 498.49787941 264.47444265 497.44499394 267.87695312 496.38867188 C272.81861068 494.84949048 277.75751466 493.30190422 282.69018555 491.73413086 C283.67053268 491.42261581 284.65087982 491.11110077 285.66093445 490.79014587 C287.98503235 490.06475147 287.98503235 490.06475147 290 489 C289.19631485 488.73628098 288.3926297 488.47256195 287.56459045 488.20085144 C279.81920961 485.65914959 272.0740802 483.11668318 264.3292017 480.57345104 C260.35183886 479.26740769 256.37439418 477.96161497 252.39672852 476.65649414 C230.57780359 469.49717489 208.77799118 462.28292572 187 455 C187.99 451.37 188.98 447.74 190 444 C182.74 444 175.48 444 168 444 C161.34311957 425.72383738 154.9423202 407.36605003 148.57885742 388.98608398 C147.83254656 386.83055705 147.08620871 384.67503945 146.33984375 382.51953125 C145.97122726 381.45494186 145.60261078 380.39035248 145.2228241 379.29350281 C141.2383668 367.79188844 137.21698702 356.30330915 133.18896484 344.81689453 C130.1050584 336.02132431 127.03170197 327.22221999 123.97265625 318.41796875 C123.29251468 316.46206492 122.61233913 314.50617292 121.93212891 312.55029297 C120.94868567 309.72245427 119.96588344 306.89440378 118.98553467 304.06549072 C115.22351227 293.21013452 111.43463249 282.38392222 107.07781982 271.7489624 C104.74557089 266.02045852 102.69322958 260.26049988 100.8203125 254.3671875 C100.22176466 252.50832859 99.62304311 250.6495256 99.02416992 248.79077148 C98.71450287 247.82565643 98.40483582 246.86054138 98.08578491 245.86618042 C92.66255155 228.98220437 87.06851531 212.16767191 81.1875 195.4375 C80.88741028 194.58275085 80.58732056 193.72800171 80.27813721 192.84735107 C79.43111132 190.43781624 78.58166825 188.02915709 77.73046875 185.62109375 C77.48216812 184.91795547 77.23386749 184.2148172 76.9780426 183.4903717 C76.01469565 180.77930467 75.0431754 178.09891629 73.8918457 175.46118164 C73 173 73 173 72.59436035 169.8296051 C71.9705919 165.81051662 70.89055065 162.10453887 69.59838867 158.26513672 C69.35417175 157.52375458 69.10995483 156.78237244 68.8583374 156.01852417 C68.05040357 153.57037961 67.23417679 151.12508459 66.41796875 148.6796875 C65.84225227 146.940051 65.2670937 145.20022977 64.69245911 143.4602356 C63.17165005 138.85975598 61.64397301 134.26158707 60.11462402 129.66394043 C58.60740799 125.12998852 57.10538984 120.59431742 55.60351562 116.05859375 C55.16202273 114.72533743 55.16202273 114.72533743 54.71161079 113.36514664 C54.11801498 111.5724093 53.52446897 109.77965548 52.93097305 107.98688507 C52.33947478 106.20027747 51.74784851 104.41371225 51.1560936 102.62718964 C47.0505632 90.23161703 42.96087755 77.83098564 38.91787148 65.41485977 C38.3849814 63.77924801 37.85110842 62.14395612 37.31621361 60.50899887 C36.58327816 58.26752203 35.85416412 56.02484047 35.1262207 53.78173828 C34.90881792 53.11897007 34.69141514 52.45620186 34.46742439 51.77334976 C33 47.22908274 33 47.22908274 33 45 C21.78 45 10.56 45 -1 45 C-1.020625 39.8025 -1.04125 34.605 -1.0625 29.25 C-1.071604 27.63641602 -1.08070801 26.02283203 -1.09008789 24.36035156 C-1.1056768 16.18371945 -0.87338881 8.14112588 0 0 Z M515.31324625 210.16899753 C510.96645977 210.18399083 506.61967218 210.19864333 502.27288437 210.21324348 C489.9728402 210.25460361 477.6727972 210.29627313 465.37275887 210.33933926 C464.59699967 210.34205531 463.82124047 210.34477135 463.02197342 210.34756971 C461.4525915 210.35306586 459.88320957 210.35856232 458.31382765 210.36405908 C457.5359237 210.36678336 456.75801976 210.36950763 455.95654297 210.37231445 C455.17755873 210.37504276 454.3985745 210.37777106 453.59598468 210.38058204 C441.97529072 210.42122457 430.35459156 210.45992114 418.73388672 210.49731445 C400.429351 210.55630884 382.1248252 210.61781667 363.8203125 210.68359375 C363.06805661 210.6862968 362.31580072 210.68899984 361.54074919 210.6917848 C290.69258094 210.94727865 219.84637961 211.44440458 149 212 C149.62977257 214.53757381 150.26073355 217.07484244 150.8923645 219.61195374 C151.06871587 220.32305628 151.24506723 221.03415883 151.42676258 221.76680994 C152.97738179 227.98871121 154.69702912 234.1528387 156.4921875 240.30859375 C156.82704163 241.46670059 157.16189575 242.62480743 157.50689697 243.81800842 C158.2402539 246.35379515 158.97456275 248.88928262 159.71051025 251.42431641 C161.78807062 258.58160328 163.85470501 265.7420505 165.921875 272.90234375 C166.26301268 274.08348063 166.26301268 274.08348063 166.61104202 275.28847885 C171.06886494 290.72636442 175.48311724 306.1765907 179.890625 321.62890625 C180.57613723 324.03169368 181.26165358 326.43447994 181.94717407 328.83726501 C184.69487421 338.46917026 187.44208052 348.10121496 190.18548584 357.73434448 C191.81786891 363.46625548 193.45202845 369.19765719 195.08742523 374.92870903 C195.6980056 377.06984376 196.30786095 379.21118538 196.9169693 381.35273933 C197.75421668 384.29622034 198.59385867 387.23900798 199.43408203 390.18164062 C199.68119871 391.05272681 199.92831539 391.923813 200.18292046 392.82129574 C201.33806955 397.00469091 201.33806955 397.00469091 203 401 C320.48 401 437.96 401 559 401 C561.71517229 395.56965543 564.12635383 390.36858902 566.22265625 384.71875 C566.83932886 383.08193984 567.45602943 381.44514022 568.07275391 379.80834961 C568.3954425 378.94708466 568.7181311 378.0858197 569.05059814 377.19845581 C575.23440291 360.70799894 581.60992429 344.2995817 588.125 327.9375 C596.28427428 307.43422619 604.26032893 286.86349589 612.18066406 266.2668457 C616.17558548 255.88245445 620.1746197 245.50098367 624.28125 235.16015625 C624.59712067 234.36410477 624.91299133 233.56805328 625.23843384 232.74787903 C626.65022455 229.19400022 628.06855819 225.64294024 629.49755859 222.09594727 C630.2064624 220.31982056 630.2064624 220.31982056 630.9296875 218.5078125 C631.53659424 217.00178467 631.53659424 217.00178467 632.15576172 215.46533203 C633.1619873 212.96128011 633.1619873 212.96128011 633 210 C593.77068644 209.97331825 554.54235989 210.03356372 515.31324625 210.16899753 Z M296 443 C298.84001556 444.89334371 301.01672779 445.78485419 304.23071289 446.83178711 C305.83366966 447.35759621 305.83366966 447.35759621 307.4690094 447.89402771 C308.62521286 448.268022 309.78141632 448.6420163 310.97265625 449.02734375 C312.16547714 449.41692764 313.35829803 449.80651154 314.58726501 450.207901 C317.11602026 451.03291755 319.64525305 451.85622225 322.17553711 452.67651367 C325.39191315 453.71924497 328.60666129 454.76688139 331.82079411 455.81650448 C334.91253774 456.82595469 338.00507675 457.8329577 341.09765625 458.83984375 C342.23969009 459.21181381 343.38172394 459.58378387 344.55836487 459.96702576 C346.71242705 460.66554188 348.86852301 461.3578266 351.02688599 462.04293823 C352.92945117 462.65538444 354.82441745 463.29230807 356.70822144 463.9602356 C367.03101276 467.47057353 375.20071784 464.57644137 385.3125 461.359375 C386.48022949 460.99531555 387.64795898 460.6312561 388.85107422 460.25616455 C392.56984236 459.09513458 396.28498713 457.92298405 400 456.75 C403.67842712 455.59641043 407.35757738 454.44515252 411.03686523 453.29431152 C413.41036662 452.55183533 415.78358124 451.80844172 418.15649414 451.06408691 C427.07474899 448.27153734 436.01869091 445.58212636 445 443 C445 442.67 445 442.34 445 442 C432.21727045 441.97640428 419.43454642 441.95885245 406.6517992 441.94818783 C400.7106478 441.9430589 394.76951172 441.93615353 388.82836914 441.92456055 C357.87030483 441.86572391 326.94679248 442.13827124 296 443 Z M200.17578125 562.6328125 C194.34653821 568.94660219 191.30656163 576.48180091 190.8515625 585.04296875 C191.33335717 594.64082576 194.79102181 602.08709175 201.484375 608.90234375 C209.75191843 615.79624254 218.43977284 617.88422955 229 617 C238.51499722 614.91072812 245.48390493 610.0866426 250.875 602 C255.49664683 593.84598336 256.5714894 584.91318571 254.16015625 575.83984375 C250.92453849 567.22242407 246.01662962 561.00928165 237.9375 556.5 C234.23606235 554.84274882 231.0611346 554.59388654 227 555 C226.34 555.33 225.68 555.66 225 556 C225 555.01 225 554.02 225 553 C215.36703774 553 207.39846762 556.16796688 200.17578125 562.6328125 Z M508 568 C500.93757242 576.65070277 498.94486616 584.92760787 500 596 C502.42488882 605.46362017 507.25870731 612.560535 515.53515625 617.7109375 C523.49194024 621.8721716 531.14012959 623.13262805 539.875 620.875 C548.70048351 617.99129338 555.28747273 613.03099503 560 605 C564.18625119 596.56183094 564.98968259 587.96904776 562 579 C560.30734803 575.62403601 558.35307939 574.57287912 554.92749023 573.35253906 C553.22572539 572.80915816 551.51902211 572.28108712 549.80859375 571.765625 C548.45701927 571.34129181 548.45701927 571.34129181 547.07814026 570.90838623 C544.20179713 570.00922242 541.31981543 569.12980654 538.4375 568.25 C536.49246089 567.64313615 534.54779431 567.03507697 532.60351562 566.42578125 C529.05214775 565.32028122 525.50077944 564.21496565 521.94311523 563.12988281 C521.22824448 562.91100403 520.51337372 562.69212524 519.77684021 562.46661377 C514.77825206 561.15394083 511.52900582 564.79240921 508 568 Z " fill="#EA570B" transform="translate(633,12)"/>
<path d="M0 0 C168.71428571 0 168.71428571 0 194 23 C194.81855469 23.71542969 195.63710937 24.43085937 196.48046875 25.16796875 C208.49258609 36.3077992 216.26703522 51.88576627 217.12475586 68.40234375 C217.7240264 89.22186114 215.67086843 108.15074947 201.625 124.5625 C191.45837489 134.9199662 178.74552019 140.80645147 165 145 C166.06476563 145.21914063 167.12953125 145.43828125 168.2265625 145.6640625 C182.79291766 148.79000569 195.3628611 153.30546775 207 163 C207.71800781 163.59296875 208.43601563 164.1859375 209.17578125 164.796875 C221.83380006 176.29969598 228.26693454 194.65640115 229.12280273 211.40283203 C229.96944329 238.36666094 225.33739029 263.154353 207 284 C206.00033203 285.14275391 206.00033203 285.14275391 204.98046875 286.30859375 C185.32051239 307.35459527 157.33887615 313.09444626 130 317 C87.1 317 44.2 317 0 317 C0 212.39 0 107.78 0 0 Z M69 58 C69 81.1 69 104.2 69 128 C76.71375 128.061875 84.4275 128.12375 92.375 128.1875 C94.78989746 128.21481201 97.20479492 128.24212402 99.69287109 128.27026367 C101.63638816 128.27903677 103.57991081 128.28667875 105.5234375 128.29296875 C107.00130737 128.3159906 107.00130737 128.3159906 108.5090332 128.33947754 C119.28171753 128.34349021 129.01390018 125.70963336 136.9453125 118.14453125 C145.64315229 108.73703507 146.48397191 98.78065297 146.2734375 86.46875 C145.96435384 79.13642862 143.7874238 73.64574867 138.875 68.1875 C129.13712714 59.36515365 117.48951975 57.67108454 104.83984375 57.8046875 C103.92497192 57.80670166 103.0101001 57.80871582 102.06750488 57.81079102 C98.69078467 57.82115636 95.31413663 57.84907793 91.9375 57.875 C80.5834375 57.936875 80.5834375 57.936875 69 58 Z M69 178 C69 204.73 69 231.46 69 259 C80.199375 259.061875 80.199375 259.061875 91.625 259.125 C93.95127441 259.14320801 96.27754883 259.16141602 98.67431641 259.18017578 C115.43187614 259.25810766 130.64137239 258.94138354 145.375 249.9375 C154.10271524 240.17077104 156.51523245 227.93132835 156.25 215.18359375 C155.53591562 206.0901755 154.0420915 197.10443726 148 190 C147.53078125 189.44828125 147.0615625 188.8965625 146.578125 188.328125 C136.60664275 178.35664275 118.68028114 178.79251757 106 178 C93.79 178 81.58 178 69 178 Z " fill="#EA570B" transform="translate(20,758)"/>
<path d="M0 0 C1.37357537 1.16499541 2.72907787 2.3517527 4.0625 3.5625 C4.68640625 4.10648438 5.3103125 4.65046875 5.953125 5.2109375 C9.40892864 8.41131218 11.88775727 11.72563165 14.26953125 15.79296875 C14.79651611 16.68781982 15.32350098 17.5826709 15.86645508 18.50463867 C16.2611499 19.18373291 16.65584473 19.86282715 17.0625 20.5625 C17.11784912 19.82088623 17.17319824 19.07927246 17.23022461 18.31518555 C17.48287 14.95981292 17.74136514 11.60491604 18 8.25 C18.13051758 6.49913086 18.13051758 6.49913086 18.26367188 4.71289062 C18.35068359 3.59462891 18.43769531 2.47636719 18.52734375 1.32421875 C18.605896 0.29256592 18.68444824 -0.73908691 18.76538086 -1.80200195 C19.0625 -4.4375 19.0625 -4.4375 20.0625 -7.4375 C41.5125 -7.4375 62.9625 -7.4375 85.0625 -7.4375 C85.10666777 23.35729077 85.14356643 54.15205075 85.16463066 84.94686335 C85.16713179 88.59014528 85.16972047 92.23342715 85.17236328 95.87670898 C85.1728879 96.60195971 85.17341252 97.32721044 85.17395304 98.07443846 C85.18263363 109.78677683 85.19839055 121.49909537 85.21680559 133.21142202 C85.23557015 145.24726495 85.24663052 157.28309757 85.25067699 169.31895453 C85.25316464 176.07174965 85.25910093 182.82450361 85.27396011 189.57728386 C85.2876195 195.94411153 85.29170585 202.31087628 85.28871536 208.67771721 C85.28926181 211.00395043 85.29318911 213.33018594 85.30091095 215.6564064 C85.39885378 246.70689736 82.3450392 276.99917773 60.0625 300.5625 C35.97572337 324.01168548 2.19098756 328.94977622 -29.98632812 328.86499023 C-57.11582143 328.48662743 -83.22820607 322.5609164 -104.9375 305.5625 C-105.61941406 305.05589844 -106.30132813 304.54929687 -107.00390625 304.02734375 C-120.19834727 293.51826842 -127.84050295 276.70905842 -130.4453125 260.37890625 C-131.14930964 253.43821649 -130.59260445 247.76864892 -129.9375 240.5625 C-107.8275 240.5625 -85.7175 240.5625 -62.9375 240.5625 C-62.2775 244.8525 -61.6175 249.1425 -60.9375 253.5625 C-58.11187424 261.16995397 -53.63919033 266.33325028 -46.21875 269.8515625 C-31.56912333 275.44578807 -13.18699896 275.72941437 1.3125 269.5 C7.42256348 266.20996582 10.51008169 261.62403524 12.95869446 255.21781921 C15.33938765 247.22249593 15.45139833 239.55575721 15.35546875 231.26953125 C15.34985918 229.82794135 15.34559553 228.38634564 15.34260559 226.94474792 C15.33126366 223.18821853 15.30189136 219.43204857 15.26849365 215.67565918 C15.23756009 211.82744201 15.224051 207.97916559 15.20898438 204.13085938 C15.17700883 196.60791075 15.12594534 189.08525613 15.0625 181.5625 C14.7334668 182.36856689 14.40443359 183.17463379 14.06542969 184.00512695 C13.62618164 185.07206787 13.18693359 186.13900879 12.734375 187.23828125 C12.3022168 188.29184814 11.87005859 189.34541504 11.42480469 190.4309082 C4.7123564 205.86111864 -5.64787975 214.36933397 -20.9375 220.5625 C-38.86742054 227.42144265 -62.70038369 225.31880473 -80.1796875 217.796875 C-88.26481959 214.08660023 -95.37182607 209.61164364 -101.9375 203.5625 C-103.10539063 202.49708984 -103.10539063 202.49708984 -104.296875 201.41015625 C-127.03842707 179.69884227 -136.51667487 147.15862856 -137.28515625 116.50390625 C-137.58344952 100.40560924 -137.52495591 84.33275709 -133.9375 68.5625 C-133.79296387 67.89750488 -133.64842773 67.23250977 -133.49951172 66.54736328 C-127.79151114 40.90244817 -114.65198721 15.5533496 -92.25 0.8125 C-65.81878826 -15.76776564 -26.054938 -19.58521522 0 0 Z M-54.71484375 57.40625 C-66.17910219 71.64176684 -68.11822185 89.53700931 -68.1875 107.125 C-68.208125 108.40697266 -68.22875 109.68894531 -68.25 111.00976562 C-68.31697921 127.59549132 -65.03189688 145.34691678 -52.9375 157.5625 C-41.98428886 166.5618951 -29.76389917 168.49925701 -15.9375 167.5625 C-3.60631997 165.92778198 6.98497754 162.36915571 15.0625 152.5625 C16.62660079 149.43429842 16.23648761 146.09532303 16.25537109 142.65966797 C16.26354858 141.84317276 16.27172607 141.02667755 16.28015137 140.18544006 C16.30502225 137.47519668 16.32152899 134.76500588 16.3359375 132.0546875 C16.34392302 130.66576483 16.34392302 130.66576483 16.35206985 129.24878311 C16.37881352 124.34424924 16.3981813 119.43974089 16.41259766 114.53515625 C16.42921491 109.47773597 16.47396454 104.42097121 16.5249691 99.36379814 C16.5586948 95.46889533 16.57018112 91.57414677 16.57582474 87.67911148 C16.58252648 85.81564471 16.59772047 83.9521877 16.62171555 82.08886337 C16.65347403 79.4726068 16.65338782 76.85809938 16.64599609 74.24169922 C16.66240143 73.47879074 16.67880676 72.71588226 16.69570923 71.92985535 C16.61660116 65.05123639 13.61201127 60.56160251 9.24609375 55.42578125 C-1.728768 45.67853267 -14.66740163 43.76840681 -28.82519531 44.38769531 C-38.77484694 45.21108303 -47.85571277 50.29084379 -54.71484375 57.40625 Z " fill="#EA570B" transform="translate(715.9375,844.4375)"/>
<path d="M0 0 C22.11 0 44.22 0 67 0 C67.04033178 13.85396803 67.08049395 27.70777124 67.10050774 41.56175137 C67.11144438 49.0142596 67.12545088 56.46671482 67.15087891 63.91918945 C67.25534703 95.34142576 67.03819444 126.63574603 65 158 C65.33864075 156.9703009 65.67728149 155.94060181 66.02618408 154.87969971 C66.47732114 153.51514572 66.92855939 152.15062518 67.37988281 150.78613281 C67.60225616 150.10906281 67.82462952 149.4319928 68.05374146 148.73440552 C69.65622609 143.89899916 71.42483184 139.27938092 73.75 134.75 C74.08797607 134.08798584 74.42595215 133.42597168 74.77416992 132.74389648 C83.38598944 116.47318043 96.7329818 105.86626977 114.0234375 99.96875 C134.96993299 94.38301787 157.75141182 96.96787329 176.7734375 107.015625 C181.79709876 110.1052375 185.9015913 113.78365148 190 118 C190.63421875 118.61359375 191.2684375 119.2271875 191.921875 119.859375 C208.50104689 137.02542023 210.33306658 162.92920219 210.22705078 185.47021484 C210.22648522 187.17669162 210.22680604 188.88316889 210.22793579 190.58964539 C210.22850467 195.17755671 210.21682647 199.76536137 210.20278788 204.35324812 C210.19020221 209.16449904 210.18910389 213.97575298 210.18673706 218.78701782 C210.18054516 227.87785372 210.16416563 236.96864095 210.14403808 246.05945551 C210.12160742 256.41749645 210.1106677 266.77553983 210.10064721 277.13359904 C210.07979713 298.42243248 210.04314983 319.71119928 210 341 C187.23 341 164.46 341 141 341 C140.94392578 325.16193359 140.94392578 325.16193359 140.88671875 309.00390625 C140.85642166 302.2910028 140.82538205 295.57811619 140.79101562 288.86523438 C140.736676 278.22421851 140.68525715 267.58324932 140.65356445 256.94213867 C140.63046153 249.18982307 140.59692854 241.43763162 140.55129844 233.68541473 C140.52753049 229.58745947 140.50869491 225.48962589 140.50238609 221.39160347 C141.99229974 189.08719448 141.99229974 189.08719448 129.078125 161.00390625 C121.32867576 154.74126995 112.65929169 154.10854668 103 155 C91.16535494 157.60050753 82.08370451 165.41108293 75 175 C74.58477742 175.55447028 74.16955484 176.10894056 73.74174976 176.68021297 C69.03249747 183.87528041 69.28824119 191.14853615 69.34057617 199.43383789 C69.3321118 200.98195684 69.32146258 202.53006515 69.30880737 204.07815552 C69.28077651 208.25739126 69.28311199 212.43611172 69.29110122 216.61541295 C69.29423588 220.99168595 69.26916391 225.36779758 69.24714661 229.7440033 C69.20976031 238.02044452 69.19756183 246.29672145 69.1945222 254.57323879 C69.18894638 265.76469113 69.14423952 276.95598373 69.10178089 288.14734554 C69.03596882 305.76493692 69.02224728 323.382175 69 341 C46.23 341 23.46 341 0 341 C0 228.47 0 115.94 0 0 Z " fill="#E9570B" transform="translate(855,734)"/>
<path d="M0 0 C1.38897625 0.00063635 1.38897625 0.00063635 2.80601263 0.00128555 C25.93318612 0.01206662 49.06034452 0.03157625 72.1875 0.0625 C71.37177918 4.46503092 69.99542953 8.47988376 68.37109375 12.640625 C68.08299835 13.38795395 67.79490295 14.1352829 67.49807739 14.90525818 C66.54437639 17.37590295 65.58479433 19.84421664 64.625 22.3125 C63.95341787 24.04782585 63.28211732 25.78326069 62.61108398 27.51879883 C60.83736114 32.10213884 59.05790609 36.68322931 57.27624512 41.26348877 C56.19682997 44.03851395 55.11834779 46.8139002 54.04003906 49.58935547 C51.94615041 54.97732541 49.84902442 60.36402891 47.75 65.75 C47.26694901 66.98985657 47.26694901 66.98985657 46.7741394 68.25476074 C46.45929596 69.06239868 46.14445251 69.87003662 45.82006836 70.70214844 C45.54770859 71.40088074 45.27534882 72.09961304 44.99473572 72.81951904 C40.78039515 83.59093178 36.4837429 94.32189276 32.1875 105.0625 C-65.4925 105.0625 -163.1725 105.0625 -263.8125 105.0625 C-267.18760757 96.06221314 -267.18760757 96.06221314 -268.10890198 92.85816956 C-268.3204895 92.12814728 -268.53207703 91.398125 -268.75007629 90.64598083 C-269.07983711 89.49006187 -269.07983711 89.49006187 -269.41625977 88.31079102 C-269.65732452 87.4755188 -269.89838928 86.64024658 -270.14675903 85.77966309 C-270.93568872 83.04282407 -271.71993917 80.30467055 -272.50390625 77.56640625 C-273.05512879 75.64878047 -273.6065594 73.73121449 -274.15818787 71.81370544 C-275.31090171 67.80404866 -276.46133684 63.79374724 -277.61010742 59.78295898 C-279.07761217 54.6599113 -280.55041385 49.5384049 -282.02488804 44.41735935 C-283.16362416 40.46039476 -284.29971727 36.50267511 -285.43501091 32.5447216 C-285.9768434 30.6567893 -286.51944056 28.76907628 -287.0628376 26.8815937 C-287.82392049 24.23634848 -288.58147415 21.5901166 -289.33813477 18.94360352 C-289.55999954 18.17501511 -289.78186432 17.4064267 -290.01045227 16.61454773 C-291.47628952 11.4689852 -292.70498945 6.29662844 -293.8125 1.0625 C-264.5000503 0.8867372 -235.18754835 0.72094774 -205.875 0.5625 C-204.77653512 0.55655146 -203.67807023 0.55060292 -202.54631853 0.54447412 C-135.0306118 0.17948268 -67.51671614 -0.03188136 0 0 Z " fill="#E9570B" transform="translate(1131.8125,264.9375)"/>
<path d="M0 0 C157.93658856 0 157.93658856 0 182.41796875 24.35546875 C183.27003906 25.22816406 184.12210938 26.10085938 185 27 C185.67675781 27.65613281 186.35351562 28.31226563 187.05078125 28.98828125 C200.32626811 42.73473882 204.39243894 63.67132991 204.21484375 82.08203125 C203.11579874 102.12461576 196.39724218 118.52235049 181.80078125 132.609375 C173.84364088 139.40124377 164.97107103 143.96271985 155 147 C155 147.33 155 147.66 155 148 C156.06476563 148.20753906 157.12953125 148.41507813 158.2265625 148.62890625 C177.43252405 152.60585333 193.8861334 161.22346564 205 178 C218.0851376 200.16838202 218.40923683 227.36578063 212.53173828 251.99414062 C206.95927303 273.01497374 194.18634575 290.79461974 175.75 302.5625 C126.29998938 330.16103722 41.5449247 317 0 317 C0 212.39 0 107.78 0 0 Z M29 26 C29 62.96 29 99.92 29 138 C43.31375 138.0825 57.6275 138.165 72.375 138.25 C76.85755371 138.28641602 81.34010742 138.32283203 85.95849609 138.36035156 C90.05500186 138.37374745 90.05500186 138.37374745 94.15151978 138.3817749 C95.94493609 138.38782845 97.73833846 138.40170661 99.53164673 138.42230225 C121.61214121 138.66272038 143.67064933 135.39084687 160.4453125 119.71484375 C172.99630211 106.64607404 174.615216 91.97675478 174.3125 74.62890625 C173.75413527 60.59766579 167.69696081 48.67823795 157.546875 39.0390625 C140.2618368 25.20042762 116.39767991 25.68195134 95.40625 25.8046875 C93.69498831 25.80763795 91.9837248 25.8096722 90.27246094 25.81079102 C84.01494595 25.82116228 77.75746992 25.84908393 71.5 25.875 C50.4625 25.936875 50.4625 25.936875 29 26 Z M29 165 C29 206.58 29 248.16 29 291 C41.49875 291.020625 53.9975 291.04125 66.875 291.0625 C70.78327637 291.071604 74.69155273 291.08070801 78.71826172 291.09008789 C82.30250506 291.09343768 82.30250506 291.09343768 85.88674927 291.09544373 C87.45096117 291.09695308 89.01517211 291.10041347 90.57937622 291.10557556 C99.28890896 291.13281512 107.96973303 291.03163071 116.66845703 290.56811523 C117.38637861 290.53083093 118.10430019 290.49354662 118.84397697 290.45513248 C135.96789122 289.43880991 153.62676709 285.23550423 167 274 C167.63164063 273.47921875 168.26328125 272.9584375 168.9140625 272.421875 C179.82260144 262.52249605 185.28126261 247.10124175 186.140625 232.63232422 C186.84449453 213.26535402 185.55281904 196.29854851 172 181.3125 C158.00828722 168.09161614 137.45298815 164.8130073 118.91210938 164.88647461 C117.91992653 164.88635407 116.92774368 164.88623354 115.90549469 164.88610935 C112.71822304 164.88685117 109.53101108 164.8944459 106.34375 164.90234375 C104.36621122 164.90381544 102.38867206 164.90483475 100.41113281 164.90539551 C93.10741591 164.91062213 85.80370736 164.9245834 78.5 164.9375 C62.165 164.958125 45.83 164.97875 29 165 Z " fill="#EA570B" transform="translate(1292,758)"/>
<path d="M0 0 C18.81 0 37.62 0 57 0 C57 22.44 57 44.88 57 68 C73.17 68 89.34 68 106 68 C106 85.49 106 102.98 106 121 C89.83 121 73.66 121 57 121 C57.06296278 136.09958839 57.13821718 151.19900609 57.23571491 166.29840755 C57.28059839 173.31000702 57.32002999 180.32155654 57.34643555 187.33325195 C57.37194384 194.10256185 57.41289849 200.87163946 57.46318626 207.64081001 C57.47984425 210.22068059 57.49136515 212.80058973 57.49761391 215.38050652 C57.5072662 218.99991998 57.53534079 222.61876438 57.56762695 226.23803711 C57.56619186 227.29971603 57.56475677 228.36139496 57.5632782 229.45524597 C57.65572879 236.80540238 58.08621296 244.08621296 63.5 249.5 C67.24042429 251.74425457 70.02458694 252.12772493 74.3046875 252.1328125 C75.36429688 252.13410156 76.42390625 252.13539063 77.515625 252.13671875 C79.17851563 252.13091797 79.17851563 252.13091797 80.875 252.125 C81.94492188 252.12886719 83.01484375 252.13273438 84.1171875 252.13671875 C85.1896875 252.13542969 86.2621875 252.13414062 87.3671875 252.1328125 C88.32737793 252.13168457 89.28756836 252.13055664 90.27685547 252.12939453 C95.86056364 251.93533779 101.42937753 251.42850942 107 251 C107 269.15 107 287.3 107 306 C93.50449723 308.99900062 80.45630672 309.21325338 66.69262695 309.24023438 C63.70430716 309.24994538 60.71667512 309.28105862 57.72851562 309.3125 C37.25047268 309.42599768 18.40953411 307.00318459 3.06640625 292.125 C-7.28760126 281.08072532 -10.9946158 266.32354996 -11.20532227 251.48120117 C-11.22524734 250.21994415 -11.24517242 248.95868713 -11.26570129 247.65921021 C-11.28273992 246.28713141 -11.29963733 244.91505086 -11.31640625 243.54296875 C-11.33725977 242.09633934 -11.35844149 240.64971462 -11.37992859 239.20309448 C-11.43591611 235.33178804 -11.48560522 231.46042827 -11.53303528 227.58900833 C-11.56250808 225.18684168 -11.59297974 222.78468939 -11.62365723 220.38253784 C-11.74564793 210.7542097 -11.8540414 201.12578143 -11.95318604 191.49719238 C-11.98293574 188.60972306 -12.01401857 185.72227519 -12.04681396 182.83483887 C-12.12796088 175.63981204 -12.19482788 168.44506544 -12.23117065 161.24966431 C-12.2436329 159.14023304 -12.26107604 157.03082479 -12.28372192 154.92147827 C-12.31326939 152.02172235 -12.32343648 149.12254431 -12.328125 146.22265625 C-12.34042648 145.39563202 -12.35272797 144.56860779 -12.36540222 143.71652222 C-12.34401785 138.11745951 -11.57507243 134.02278866 -9 129 C-6.36 126.69 -3.72 124.38 -1 122 C-12.88 121.67 -24.76 121.34 -37 121 C-37 103.51 -37 86.02 -37 68 C-28.42 68 -19.84 68 -11 68 C-10.67 64.37 -10.34 60.74 -10 57 C-9.6895402 54.83455211 -9.35088569 52.67271051 -8.96850586 50.51879883 C-8.76559937 49.36287231 -8.56269287 48.2069458 -8.3536377 47.01599121 C-8.14283569 45.84153442 -7.93203369 44.66707764 -7.71484375 43.45703125 C-7.5192688 42.34759155 -7.32369385 41.23815186 -7.12219238 40.09509277 C-6.39893798 36.00001316 -5.66776773 31.90633476 -4.9375 27.8125 C-3.308125 18.634375 -1.67875 9.45625 0 0 Z " fill="#E9570B" transform="translate(1133,769)"/>
<path d="M0 0 C1.02416016 -0.01224609 2.04832031 -0.02449219 3.10351562 -0.03710938 C4.5972168 -0.04000977 4.5972168 -0.04000977 6.12109375 -0.04296875 C7.02142334 -0.04707764 7.92175293 -0.05118652 8.84936523 -0.05541992 C11.5625 0.1875 11.5625 0.1875 17.5625 2.1875 C17.5625 25.6175 17.5625 49.0475 17.5625 73.1875 C8.9825 72.1975 0.4025 71.2075 -8.4375 70.1875 C-26.0544836 70.41192017 -44.19589917 72.28542739 -57.4375 85.1875 C-60.57954915 88.57194406 -60.81763568 90.94882373 -60.83622742 95.51495361 C-60.85503464 97.46687119 -60.85503464 97.46687119 -60.8742218 99.45822144 C-60.87304776 100.89825465 -60.87158862 102.33828765 -60.86987305 103.77832031 C-60.87889004 105.29614053 -60.88921711 106.81395345 -60.90075684 108.33175659 C-60.92836052 112.45124223 -60.93761589 116.57058983 -60.94361091 120.69015598 C-60.95298583 124.99570256 -60.97918849 129.30114567 -61.00361633 133.60662842 C-61.04730933 141.75923039 -61.07583907 149.91181231 -61.09893972 158.0644958 C-61.13103116 169.08151938 -61.18650815 180.09842348 -61.24068546 191.11535645 C-61.32542525 208.47270216 -61.37888711 225.83000088 -61.4375 243.1875 C-84.2075 243.1875 -106.9775 243.1875 -130.4375 243.1875 C-130.4375 164.6475 -130.4375 86.1075 -130.4375 5.1875 C-109.9775 5.1875 -89.5175 5.1875 -68.4375 5.1875 C-67.1175 23.6675 -65.7975 42.1475 -64.4375 61.1875 C-62.7875 55.9075 -61.1375 50.6275 -59.4375 45.1875 C-58.22688735 42.13801265 -57.0455964 39.24565519 -55.625 36.3125 C-55.28734619 35.60689941 -54.94969238 34.90129883 -54.60180664 34.17431641 C-51.62711169 28.17535974 -48.00383087 23.09653724 -43.4375 18.1875 C-42.87417969 17.54554688 -42.31085938 16.90359375 -41.73046875 16.2421875 C-30.58710956 4.18543821 -15.85565099 0.00994085 0 0 Z " fill="#EA570C" transform="translate(419.4375,831.8125)"/>
<path d="M0 0 C10.23 0 20.46 0 31 0 C63.69498541 97.69827974 63.69498541 97.69827974 73.5625 128.90795898 C74.14177663 130.73946817 74.72120352 132.57092983 75.30078125 134.40234375 C75.58418365 135.29803574 75.86758606 136.19372772 76.15957642 137.11656189 C78.77360196 145.34727073 81.46678206 153.55151532 84.16796875 161.75390625 C84.61579185 163.11474508 85.06361189 164.47558492 85.51142883 165.83642578 C87.48124147 171.81991004 89.45426779 177.80229278 91.43705463 183.78149128 C92.42996578 186.77905954 93.41753878 189.77838805 94.40625 192.77734375 C94.77094894 193.87148087 95.13564789 194.96561798 95.51139832 196.09291077 C95.84085953 197.09470871 96.17032074 198.09650665 96.50976562 199.12866211 C96.94367615 200.43799965 96.94367615 200.43799965 97.38635254 201.77378845 C98 204 98 204 98 207 C98.66 207 99.32 207 100 207 C100.11088455 206.45672058 100.2217691 205.91344116 100.33601379 205.35369873 C101.53110022 199.71777506 103.07885561 194.29515068 104.88671875 188.828125 C105.17618378 187.94164276 105.4656488 187.05516052 105.7638855 186.14181519 C106.73385843 183.1763586 107.71042366 180.21312311 108.6875 177.25 C109.38873016 175.11446643 110.08981641 172.9788856 110.79077148 170.84326172 C112.96661035 164.22286681 115.15263396 157.6058561 117.34169006 150.98982239 C118.0154249 148.95337634 118.688827 146.91682049 119.36218262 144.88024902 C129.68945223 113.65033009 140.02481245 82.42621386 150.96166992 51.40332031 C155.60620259 38.21927956 160.05587104 24.97552206 164.41088867 11.69311523 C164.64741653 10.97507217 164.8839444 10.25702911 165.12763977 9.51722717 C165.76189195 7.59091363 166.39255104 5.66341808 167.02294922 3.73583984 C168 1 168 1 169 0 C171.21855264 -0.08783542 173.43988496 -0.10694609 175.66015625 -0.09765625 C176.65685585 -0.09553383 176.65685585 -0.09553383 177.6736908 -0.09336853 C179.80333899 -0.08775518 181.93288339 -0.07520054 184.0625 -0.0625 C185.50325369 -0.05748671 186.94400903 -0.05292351 188.38476562 -0.04882812 C191.92321102 -0.03778145 195.46159539 -0.02050792 199 0 C197.54663031 7.44314768 195.23164439 14.35148747 192.625 21.46484375 C191.95568217 23.31279601 191.28636452 25.16074833 190.61705399 27.00870323 C189.90579523 28.96909379 189.19179236 30.92846402 188.47692871 32.88754272 C186.97813902 36.9950593 185.48699428 41.10532511 183.99707031 45.21606445 C182.21853562 50.1217186 180.43837805 55.02677677 178.6558876 59.93099499 C174.69422155 70.83162767 170.76283868 81.74307036 166.83935547 92.65750122 C165.01408851 97.73440845 163.18654681 102.81049684 161.359375 107.88671875 C160.63475367 109.90022356 159.91014429 111.91373267 159.18554688 113.92724609 C156.21037722 122.19432955 153.23421384 130.46105523 150.25805664 138.7277832 C148.75712491 142.89684883 147.25631601 147.06595865 145.75561523 151.23510742 C141.9702641 161.75109311 138.18358315 172.26659715 134.39453125 182.78125 C130.2813949 194.19579634 126.17316139 205.61209998 122.0682373 217.02960205 C121.01255214 219.96509684 119.95606028 222.90030025 118.89941406 225.83544922 C116.90821446 231.36807198 114.9216205 236.90233497 112.9375 242.4375 C112.62549652 243.30682159 112.31349304 244.17614319 111.99203491 245.07180786 C108.2012631 255.64474187 104.57756913 266.24958694 101.125 276.9375 C95.32389085 294.70339677 88.64774267 313.68395909 72 324 C70.91138672 324.67675781 70.91138672 324.67675781 69.80078125 325.3671875 C53.76667345 334.32508574 34.71063733 332.30950628 17 332 C17 323.09 17 314.18 17 305 C18.97742187 304.96261719 20.95484375 304.92523437 22.9921875 304.88671875 C24.94175662 304.83797952 26.89132448 304.7891365 28.84082031 304.73754883 C30.83116913 304.68857841 32.82184881 304.65370054 34.8125 304.61914062 C46.12277685 304.30496627 55.55627324 303.0241627 64 295 C73.42364157 284.46532843 77.44716178 270.47350567 81.75 257.25 C82.67205991 254.41836736 83.60582097 251.59099394 84.546875 248.765625 C84.94745117 247.53618164 85.34802734 246.30673828 85.76074219 245.04003906 C86.89330647 242.26173126 87.69371076 240.8446969 90 239 C87.69 238.67 85.38 238.34 83 238 C82.57404541 236.76701172 82.14809082 235.53402344 81.70922852 234.26367188 C73.46190711 210.40020302 65.16341892 186.55654773 56.71170044 162.76464844 C50.81726422 146.16871945 44.98283824 129.55223825 39.17319489 112.92648315 C32.44323203 93.66733495 25.69105216 74.41638776 18.875 55.1875 C18.52744659 54.20666443 18.17989319 53.22582886 17.82180786 52.215271 C14.67189131 43.32725972 11.51749427 34.4408898 8.34289551 25.56166077 C7.28228089 22.59491427 6.22356175 19.62749281 5.16485596 16.6600647 C4.46051482 14.68939301 3.75262122 12.72002439 3.04443359 10.75073242 C2.63660645 9.60838135 2.2287793 8.46603027 1.80859375 7.2890625 C1.45595459 6.30631348 1.10331543 5.32356445 0.73999023 4.31103516 C0 2 0 2 0 0 Z " fill="#EA570B" transform="translate(1777,837)"/>
<path d="M0 0 C22.44 0 44.88 0 68 0 C68 78.54 68 157.08 68 238 C45.56 238 23.12 238 0 238 C0 159.46 0 80.92 0 0 Z " fill="#E9570B" transform="translate(468,837)"/>
<path d="M0 0 C8.91 0 17.82 0 27 0 C27.00879936 3.19441017 27.00879936 3.19441017 27.01777649 6.45335388 C27.07458204 26.56510531 27.14773205 46.67675062 27.23571491 66.78839016 C27.28055475 77.12690138 27.31999623 87.46537907 27.34643555 97.80395508 C27.36951174 106.82196563 27.40301595 115.83986898 27.44870156 124.85779434 C27.47250484 129.62644349 27.49131764 134.39498732 27.49761391 139.16369438 C27.50372372 143.6658259 27.52393217 148.16768839 27.55427551 152.6697197 C27.56296239 154.3089809 27.56679812 155.94827741 27.56500816 157.58756065 C27.55879651 165.91238505 27.933482 173.97385517 29.34342957 182.19129944 C29.51827785 183.21994414 29.51827785 183.21994414 29.69665843 184.26936954 C31.39434504 193.2178121 35.66550762 202.5090465 42.75390625 208.4765625 C55.96535919 216.86569244 73.05014796 216.91731018 88.0625 213.875 C108.56961073 208.17858035 121.80422079 193.62292112 132.63366508 176.12196922 C134 174 134 174 135.52870369 171.99677467 C140.95211528 164.3318819 140.84977004 156.83018153 140.77294922 147.81005859 C140.78113241 146.19282564 140.79194194 144.57560418 140.80516052 142.95840454 C140.83346013 138.59525886 140.82528999 134.23287225 140.81029272 129.86968946 C140.80087989 125.29989831 140.82539354 120.73028832 140.84622192 116.16055298 C140.8804973 107.51931982 140.88450929 98.87835155 140.87749684 90.237064 C140.87099409 80.394134 140.89845973 70.55138898 140.92869925 60.70851398 C140.99011254 40.47231515 141.0079216 20.23628026 141 0 C150.24 0 159.48 0 169 0 C169 78.54 169 157.08 169 238 C161.08 238 153.16 238 145 238 C144.24613804 234.98455217 143.83974866 232.71977035 143.70288086 229.69042969 C143.66291489 228.84986023 143.62294891 228.00929077 143.58177185 227.14324951 C143.54318558 226.24519592 143.5045993 225.34714233 143.46484375 224.421875 C143.42186661 223.4953009 143.37888947 222.56872681 143.33460999 221.61407471 C143.19844314 218.65954232 143.06790085 215.70479194 142.9375 212.75 C142.8460739 210.74477473 142.75428137 208.73956613 142.66210938 206.734375 C142.43715657 201.82309987 142.21724724 196.91162177 142 192 C141.54979492 192.93231445 141.09958984 193.86462891 140.63574219 194.82519531 C131.02945021 214.5164011 116.98969591 231.00422291 95.796875 238.5703125 C75.76540678 245.22001881 54.34722241 245.18817511 34.87890625 236.50390625 C18.61182743 228.00617851 9.14085425 214.74058905 3.078125 197.78515625 C-0.03932942 186.84018041 -0.27682037 176.24083981 -0.22705078 164.95239258 C-0.22648574 163.14783739 -0.22680504 161.34328173 -0.22793579 159.53872681 C-0.22850667 154.66965787 -0.21679547 149.80068865 -0.20278788 144.93164277 C-0.19023613 139.83209385 -0.18910653 134.73254233 -0.18673706 129.63298035 C-0.18053531 119.98955688 -0.16414222 110.34617907 -0.14403808 100.70277566 C-0.12163837 89.71845543 -0.11067543 78.73413296 -0.10064721 67.74979556 C-0.07977479 45.16650425 -0.04421867 22.58325662 0 0 Z " fill="#EA560B" transform="translate(1564,837)"/>
<path d="M0 0 C72.93 0 145.86 0 221 0 C213.91496056 7.08503944 206.55209762 13.64860094 198.68359375 19.84765625 C195.65440183 22.27718281 192.70071407 24.78906064 189.75 27.3125 C185.27159072 31.13574193 180.71498463 34.82842974 176.0625 38.4375 C170.58061126 42.69407026 165.28164992 47.12458981 160.03271484 51.66430664 C155.75445002 55.36331046 151.41350176 58.97293992 147.0234375 62.5390625 C143.27229952 65.59231434 139.54305545 68.67166301 135.8125 71.75 C127.57544992 78.54175803 119.29497278 85.27917414 111 92 C106.62050576 88.74437473 102.27233451 85.4743393 98.0625 82 C96.66837891 80.85144531 96.66837891 80.85144531 95.24609375 79.6796875 C94.73546387 79.2578418 94.22483398 78.83599609 93.69873047 78.40136719 C91.79291219 76.82916297 89.88295421 75.26207036 87.97265625 73.6953125 C80.75557201 67.77120725 73.57161925 61.81421983 66.46142578 55.76220703 C62.56805276 52.45706789 58.59643365 49.26470718 54.59375 46.09375 C50.94598567 43.14916916 47.3854602 40.10548467 43.81640625 37.06640625 C39.80036092 33.6551301 35.70907849 30.3534799 31.578125 27.08203125 C28.0349164 24.22062188 24.58254567 21.25487749 21.12182617 18.29492188 C16.36229117 14.24998333 11.46409808 10.39753214 6.49316406 6.6159668 C3.79519557 4.53800174 1.90837075 2.86255613 0 0 Z " fill="#EA570B" transform="translate(922,66)"/>
<path d="M0 0 C7.67217213 7.41314381 12.46716611 15.90861861 12.9609375 26.703125 C13.28000783 45.51083915 13.28000783 45.51083915 8.625 53.8125 C8.13902344 54.68003906 7.65304687 55.54757812 7.15234375 56.44140625 C1.64942432 65.1706236 -6.33548053 70.94015767 -16.125 74.15234375 C-28.04227994 76.57304124 -40.44249151 75.91557871 -50.828125 69.234375 C-60.84246539 61.87284001 -67.0636055 53.12185781 -69.375 40.8125 C-69.65334978 38.01353831 -69.70968843 35.24899905 -69.6875 32.4375 C-69.68258545 31.69508057 -69.6776709 30.95266113 -69.67260742 30.18774414 C-69.47097442 20.70685682 -66.85955722 13.51865002 -61.375 5.8125 C-60.818125 4.966875 -60.26125 4.12125 -59.6875 3.25 C-43.87404412 -13.41823728 -17.56784069 -14.81467163 0 0 Z " fill="#EA570B" transform="translate(530.375,735.1875)"/>
</svg>
